<?xml version="1.0" encoding="UTF-8" standalone="no"?><!-- Generator: Gravit.io --><svg xmlns="http://www.w3.org/2000/svg" xmlns:xlink="http://www.w3.org/1999/xlink" style="isolation:isolate" viewBox="168 68 534 991.99" width="534pt" height="991.99pt"><g><g><path d=" M 588.356 954.734 L 596.25 994.89 L 551.159 1015.941 L 532.205 974.36 L 588.356 954.734 Z " fill-rule="evenodd" fill="rgb(0,0,0)"/><path d=" M 569.949 1059.99 L 546.65 1006.183 C 546.65 1006.183 572.992 994.109 594.304 985.351 C 627.676 990.326 678.18 987.462 694.901 983.981 C 699.465 995.301 702 1003.017 702 1003.017 L 569.949 1059.99 Z " fill-rule="evenodd" fill="rgb(0,0,0)"/><path d=" M 260.908 959.106 L 241.502 977.06 L 199.563 946.223 L 214.365 926.651 L 260.908 959.106 Z " fill-rule="evenodd" fill="rgb(0,0,0)"/><path d=" M 203.264 941.289 L 168 987.53 L 243.667 1046.915 L 318.443 1046.915 L 318.279 1027.289 C 318.279 1027.289 265.267 1017.696 265.431 1017.847 C 254.467 1004.785 245.558 973.277 245.558 973.277 L 203.264 941.289 Z " fill-rule="evenodd" fill="rgb(0,0,0)"/><path d=" M 334.081 531.431 C 334.081 531.431 309.494 712.999 300.777 732.557 C 300.777 732.557 207.691 927.899 207.691 927.899 L 268.666 971.632 C 268.666 971.632 404.417 766.971 410.57 756.007 C 414.545 748.989 425.139 707.202 425.139 707.202 L 529.683 991.875 L 598.963 960.216 L 526.229 538.75 L 334.081 531.431 Z " fill-rule="evenodd" fill="rgb(170,218,241)"/><path d=" M 407.72 534.255 L 462.157 536.324 L 461.76 549.454 L 407.72 534.255 Z  M 460.787 583.991 L 454.551 787.268 L 425.153 707.435 L 460.787 583.991 Z " fill-rule="evenodd" fill="rgb(115,169,195)"/><mask id="_mask_C3dwv7cSEP4OgM65OLCosxtFoKbeD8T0" x="-200%" y="-200%" width="400%" height="400%"><rect x="-200%" y="-200%" width="400%" height="400%" style="fill:white;"/><line x1="425.084" y1="707.435" x2="465.912" y2="565.119" fill="black" stroke="none"/></mask><line x1="425.084" y1="707.435" x2="465.912" y2="565.119" mask="url(#_mask_C3dwv7cSEP4OgM65OLCosxtFoKbeD8T0)" vector-effect="non-scaling-stroke" stroke-width="3.4" stroke="rgb(0,151,247)" stroke-linejoin="round" stroke-linecap="round" stroke-miterlimit="4"/><mask id="_mask_GXpl9Afy0gUCLscEtBG0jYYGsl5ieP8e" x="-200%" y="-200%" width="400%" height="400%"><rect x="-200%" y="-200%" width="400%" height="400%" style="fill:white;"/><path d=" M 268.748 874.736 L 325.57 769.616 C 314.469 758.391 309.823 746.399 335.273 760.625 C 354.146 771.165 357.298 767.588 340.755 749.346 C 318.484 724.841 322.363 721.483 344.264 725.019" fill="black" stroke="none"/></mask><path d=" M 268.748 874.736 L 325.57 769.616 C 314.469 758.391 309.823 746.399 335.273 760.625 C 354.146 771.165 357.298 767.588 340.755 749.346 C 318.484 724.841 322.363 721.483 344.264 725.019" fill="none" mask="url(#_mask_GXpl9Afy0gUCLscEtBG0jYYGsl5ieP8e)" vector-effect="non-scaling-stroke" stroke-width="3.4" stroke="rgb(0,151,247)" stroke-linejoin="round" stroke-linecap="round" stroke-miterlimit="4"/><path d=" M 268.748 874.736 L 325.57 769.616 C 314.469 758.391 309.823 746.399 335.273 760.625 C 354.146 771.165 357.298 767.588 340.755 749.346 C 318.484 724.841 322.363 721.483 344.264 725.019" fill="none"/><mask id="_mask_5tHwa3pWT4vkofWZCuervuBYJwu6JmX2" x="-200%" y="-200%" width="400%" height="400%"><rect x="-200%" y="-200%" width="400%" height="400%" style="fill:white;"/><path d=" M 339.686 716.261 C 339.686 716.261 357.997 587.87 363.287 572.068" fill="black" stroke="none"/></mask><path d=" M 339.686 716.261 C 339.686 716.261 357.997 587.87 363.287 572.068" fill="none" mask="url(#_mask_5tHwa3pWT4vkofWZCuervuBYJwu6JmX2)" vector-effect="non-scaling-stroke" stroke-width="3.4" stroke="rgb(0,151,247)" stroke-linejoin="round" stroke-linecap="round" stroke-miterlimit="4"/><path d=" M 339.686 716.261 C 339.686 716.261 357.997 587.87 363.287 572.068" fill="none"/><mask id="_mask_pIKzMx1c5maqWN690yrUcgNOKWHFF273" x="-200%" y="-200%" width="400%" height="400%"><rect x="-200%" y="-200%" width="400%" height="400%" style="fill:white;"/><path d=" M 528.957 866.252 C 526.942 857.631 516.033 780.868 509.249 778.977 C 477.014 770.013 471.189 757.473 501.985 748.688 C 532.136 740.067 532.027 737.477 504.835 729.199 C 477.014 720.715 482.496 716.22 500.381 700.253 C 506.439 694.84 478.645 627.19 477.082 620.598" fill="black" stroke="none"/></mask><path d=" M 528.957 866.252 C 526.942 857.631 516.033 780.868 509.249 778.977 C 477.014 770.013 471.189 757.473 501.985 748.688 C 532.136 740.067 532.027 737.477 504.835 729.199 C 477.014 720.715 482.496 716.22 500.381 700.253 C 506.439 694.84 478.645 627.19 477.082 620.598" fill="none" mask="url(#_mask_pIKzMx1c5maqWN690yrUcgNOKWHFF273)" vector-effect="non-scaling-stroke" stroke-width="3.4" stroke="rgb(0,151,247)" stroke-linejoin="round" stroke-linecap="round" stroke-miterlimit="4"/><path d=" M 528.957 866.252 C 526.942 857.631 516.033 780.868 509.249 778.977 C 477.014 770.013 471.189 757.473 501.985 748.688 C 532.136 740.067 532.027 737.477 504.835 729.199 C 477.014 720.715 482.496 716.22 500.381 700.253 C 506.439 694.84 478.645 627.19 477.082 620.598" fill="none"/><path d=" M 286.578 401.039 C 286.757 390.472 284.481 371.641 289.196 360.321 C 293.911 349 325.035 353.879 325.035 353.879 C 325.035 353.879 286.414 411.551 286.578 401.039 Z " fill-rule="evenodd" fill="rgb(247,127,137)"/><path d=" M 414.915 218.964 C 344.168 218.964 286.441 254.803 285.879 309.118 C 285.537 343.203 279.26 367.721 279.26 367.721 L 341.989 383.318 C 341.989 383.318 320.197 532.939 327.845 539.23 C 350.596 557.979 510.208 564.256 530.012 543.848 C 531.753 518.603 516.403 451.338 516.403 451.338 C 516.403 451.338 565.111 336.514 538.715 282.365 C 513.703 231.038 447.945 221.815 418.793 220.814 C 417.19 220.759 416.285 218.964 414.915 218.964 Z " fill-rule="evenodd" fill="rgb(0,151,247)"/><path d=" M 372.99 125.562 C 372.579 101.318 397.345 68 433.006 68 C 460.951 68 489.499 81.294 490.226 102.921 C 491.678 93.985 493.063 88.462 492.048 83.528 C 498.079 83.227 510.208 98.782 510.208 119.559 C 510.208 127.591 503.945 157.934 486.128 157.564 C 468.311 157.194 400.319 181.535 400.319 181.535 C 400.319 181.535 395.851 188.072 389.82 187.579 C 383.79 187.085 372.374 175.779 372.278 169.543 C 372.182 163.307 377.828 152.096 377.76 148.628 C 377.691 145.161 373.415 149.766 372.99 125.562 Z " fill-rule="evenodd" fill="rgb(106,52,22)"/><mask id="_mask_2tOdxcoa4kASVRtO4j1wf4Ya6FAAPLiw" x="-200%" y="-200%" width="400%" height="400%"><rect x="-200%" y="-200%" width="400%" height="400%" style="fill:white;"/><line x1="458.265" y1="289.533" x2="470.833" y2="335.254" fill="black" stroke="none"/></mask><line x1="458.265" y1="289.533" x2="470.833" y2="335.254" mask="url(#_mask_2tOdxcoa4kASVRtO4j1wf4Ya6FAAPLiw)" vector-effect="non-scaling-stroke" stroke-width="6.82" stroke="rgb(0,0,0)" stroke-linejoin="round" stroke-linecap="round" stroke-miterlimit="4"/><path d=" M 493.789 156.687 C 493.794 135.232 480.874 115.887 461.053 107.674 C 441.232 99.461 418.416 103.998 403.245 119.169 C 388.074 134.34 383.537 157.156 391.75 176.977 C 399.963 196.798 419.308 209.718 440.763 209.713 C 454.826 209.713 468.314 204.126 478.258 194.182 C 488.202 184.238 493.789 170.75 493.789 156.687 Z " fill-rule="evenodd" fill="rgb(247,127,137)"/><path d=" M 496.338 136.527 C 496.338 136.527 489.211 135.156 478.727 119.642 C 465.652 122.109 444.135 121.999 425.797 116.462 C 425.564 127.522 417.45 145.627 406.281 143.626 C 395.111 141.625 390.533 114.708 390.533 114.708 L 416.861 87.187 L 456.675 87.448 L 484.702 107.197 L 496.338 136.527 Z " fill-rule="evenodd" fill="rgb(106,52,22)"/><path d=" M 480.508 150.383 C 481.002 146.148 479.672 142.529 477.548 142.283 C 475.424 142.036 473.286 145.257 472.792 149.478 C 472.299 153.699 473.628 157.331 475.766 157.578 C 477.904 157.825 479.974 154.604 480.508 150.383 Z " fill-rule="evenodd" fill="rgb(144,65,91)"/><path d=" M 387.216 167.72 C 388.587 176.149 391.328 216.237 386.983 224.761 C 396.673 234.52 425.084 238.727 439.968 234.492 C 438.803 222.925 443.6 211.618 446.163 206.999 C 448.726 202.381 385.887 159.277 387.216 167.72 Z " fill-rule="evenodd" fill="rgb(247,127,137)"/><path d=" M 445.094 143.873 C 445.587 139.651 444.258 136.033 442.134 135.773 C 440.009 135.512 437.871 138.747 437.392 142.982 C 436.912 147.217 438.214 150.835 440.352 151.082 C 442.49 151.328 444.601 148.108 445.094 143.873 Z " fill-rule="evenodd" fill="rgb(144,65,91)"/><mask id="_mask_P8JU86QYkTfYMobCK7bAPSK2FS11Ipey" x="-200%" y="-200%" width="400%" height="400%"><rect x="-200%" y="-200%" width="400%" height="400%" style="fill:white;"/><path d=" M 462.746 151.794 C 462.322 156.783 466.323 175.642 467.173 178.561 C 468.023 181.48 463.459 182.563 463.459 182.563" fill="black" stroke="none"/></mask><path d=" M 462.746 151.794 C 462.322 156.783 466.323 175.642 467.173 178.561 C 468.023 181.48 463.459 182.563 463.459 182.563" fill="none" mask="url(#_mask_P8JU86QYkTfYMobCK7bAPSK2FS11Ipey)" vector-effect="non-scaling-stroke" stroke-width="3.4" stroke="rgb(144,65,91)" stroke-linejoin="round" stroke-linecap="round" stroke-miterlimit="4"/><path d=" M 462.746 151.794 C 462.322 156.783 466.323 175.642 467.173 178.561 C 468.023 181.48 463.459 182.563 463.459 182.563" fill="none"/><path d=" M 491.13 173.312 C 490.856 178.616 478.329 205.971 470.942 210.179 C 463.555 214.386 407.898 213.838 395.111 186.291 C 405.609 184.66 412.722 175.751 421.027 156.687 C 439.584 159.428 460.622 156.687 464.007 156.865 C 467.721 157.085 476.657 169.419 491.13 173.312 Z " fill-rule="evenodd" fill="rgb(255,255,255)"/><path d=" M 380.021 274.347 C 350.911 273.785 293.184 270.236 287.387 294.905 C 281.59 319.575 276.08 361.883 279.26 367.68 C 282.439 373.478 341.715 380.824 341.715 380.824 C 346.402 368.955 372.278 302.032 380.021 274.347 Z " fill-rule="evenodd" fill="rgb(0,151,247)"/><path d=" M 317.895 437.893 C 333.93 440.497 428.565 374.56 440.297 375.849 C 452.029 377.137 482.139 375.986 482.139 375.986 C 482.139 375.986 499.271 310.324 462.719 307.898 C 460.458 307.747 447.068 319.657 447.068 319.657 C 447.068 319.657 443.353 318.478 440.763 320.603 C 436.035 324.467 420.657 341.942 412.969 344.71 C 400.031 349.384 295.035 369.243 290.005 377.603 C 284.975 385.963 279.424 431.657 317.895 437.893 Z " fill-rule="evenodd" fill="rgb(247,127,137)"/><path d=" M 569.333 336.624 L 495.941 336.624 C 487.471 336.624 477.85 342.901 474.437 350.658 L 422.782 467.989 C 419.369 475.733 423.467 482.01 431.937 482.01 L 505.315 482.01 C 513.785 482.01 523.42 475.733 526.832 467.989 L 578.474 350.645 C 581.887 342.887 577.789 336.624 569.333 336.624 Z " fill-rule="evenodd" fill="rgb(247,209,103)"/><path d=" M 571.128 431.958 C 574.623 422.94 577.117 410.482 572.211 402.506 C 567.304 394.529 548.418 369.969 540.593 369.517 C 532.767 369.065 512.675 390.842 510.523 397.901 C 508.371 404.959 509.153 420.295 512.524 426.901 C 515.896 433.507 529.423 446.335 536.234 446.595 C 543.046 446.856 569.058 437.468 571.128 431.958 Z " fill-rule="evenodd" fill="rgb(247,127,137)"/><path d=" M 573.06 413.936 C 574.006 399.381 580.352 383.62 584.655 372.929 C 587.533 365.816 585.409 359.718 580.544 358.333 C 575.678 356.949 560.589 376.849 560.15 392.24 C 559.711 407.631 572.101 428.45 573.06 413.936 Z " fill-rule="evenodd" fill="rgb(247,127,137)"/><mask id="_mask_0jUb7HusrtblPGZyatQwdR8j1nWPOhyi" x="-200%" y="-200%" width="400%" height="400%"><rect x="-200%" y="-200%" width="400%" height="400%" style="fill:white;"/><path d=" M 573.965 406.521 C 570.476 398.814 565.821 391.691 560.164 385.401" fill="black" stroke="none"/></mask><path d=" M 573.965 406.521 C 570.476 398.814 565.821 391.691 560.164 385.401" fill="none" mask="url(#_mask_0jUb7HusrtblPGZyatQwdR8j1nWPOhyi)" vector-effect="non-scaling-stroke" stroke-width="3.4" stroke="rgb(129,102,111)" stroke-linejoin="round" stroke-linecap="round" stroke-miterlimit="4"/><path d=" M 573.965 406.521 C 570.476 398.814 565.821 391.691 560.164 385.401" fill="none"/><mask id="_mask_Jl7bPXl8VNijGWxakX8W1x6XkOEyfmdI" x="-200%" y="-200%" width="400%" height="400%"><rect x="-200%" y="-200%" width="400%" height="400%" style="fill:white;"/><path d=" M 554.503 408.878 C 554.503 401.053 538.55 378.233 532.575 375.438" fill="black" stroke="none"/></mask><path d=" M 554.503 408.878 C 554.503 401.053 538.55 378.233 532.575 375.438" fill="none" mask="url(#_mask_Jl7bPXl8VNijGWxakX8W1x6XkOEyfmdI)" vector-effect="non-scaling-stroke" stroke-width="3.4" stroke="rgb(144,95,111)" stroke-linejoin="round" stroke-linecap="round" stroke-miterlimit="4"/><path d=" M 554.503 408.878 C 554.503 401.053 538.55 378.233 532.575 375.438" fill="none"/><mask id="_mask_xZ4I9zA9jWHK7hsbByZC3x4bFIPTjAFB" x="-200%" y="-200%" width="400%" height="400%"><rect x="-200%" y="-200%" width="400%" height="400%" style="fill:white;"/><path d=" M 538.838 418.088 C 538.66 414.292 526.243 393.611 519.13 389.499" fill="black" stroke="none"/></mask><path d=" M 538.838 418.088 C 538.66 414.292 526.243 393.611 519.13 389.499" fill="none" mask="url(#_mask_xZ4I9zA9jWHK7hsbByZC3x4bFIPTjAFB)" vector-effect="non-scaling-stroke" stroke-width="3.4" stroke="rgb(139,93,108)" stroke-linejoin="round" stroke-linecap="round" stroke-miterlimit="4"/><path d=" M 538.838 418.088 C 538.66 414.292 526.243 393.611 519.13 389.499" fill="none"/><mask id="_mask_pqODdiGVY5yI3Z9MPe6rHUX3tuP02Xyf" x="-200%" y="-200%" width="400%" height="400%"><rect x="-200%" y="-200%" width="400%" height="400%" style="fill:white;"/><path d=" M 509.673 296.687 C 511.044 304.718 512.332 321.891 509.016 336.583" fill="black" stroke="none"/></mask><path d=" M 509.673 296.687 C 511.044 304.718 512.332 321.891 509.016 336.583" fill="none" mask="url(#_mask_pqODdiGVY5yI3Z9MPe6rHUX3tuP02Xyf)" vector-effect="non-scaling-stroke" stroke-width="3.4" stroke="rgb(170,218,241)" stroke-linejoin="round" stroke-linecap="round" stroke-miterlimit="4"/><path d=" M 509.673 296.687 C 511.044 304.718 512.332 321.891 509.016 336.583" fill="none"/><mask id="_mask_D8zlaUdQqDiEsvFwp4wNkvDR5cclkYMN" x="-200%" y="-200%" width="400%" height="400%"><rect x="-200%" y="-200%" width="400%" height="400%" style="fill:white;"/><line x1="417.354" y1="330.046" x2="371.099" y2="330.977" fill="black" stroke="none"/></mask><line x1="417.354" y1="330.046" x2="371.099" y2="330.977" mask="url(#_mask_D8zlaUdQqDiEsvFwp4wNkvDR5cclkYMN)" vector-effect="non-scaling-stroke" stroke-width="3.4" stroke="rgb(170,218,241)" stroke-linejoin="round" stroke-linecap="round" stroke-miterlimit="4"/><mask id="_mask_I3X9X72kM3o4joyCMlUk2NZITF5dBjjL" x="-200%" y="-200%" width="400%" height="400%"><rect x="-200%" y="-200%" width="400%" height="400%" style="fill:white;"/><path d=" M 443.408 223.172 C 444.08 229.942 452.111 273.717 425.084 273.717 C 407.692 273.717 380.693 233.259 384.969 221.198" fill-rule="evenodd" fill="black" stroke="none"/></mask><path d=" M 443.408 223.172 C 444.08 229.942 452.111 273.717 425.084 273.717 C 407.692 273.717 380.693 233.259 384.969 221.198" fill-rule="evenodd" fill="rgb(247,127,137)" mask="url(#_mask_I3X9X72kM3o4joyCMlUk2NZITF5dBjjL)" vector-effect="non-scaling-stroke" stroke-width="3.4" stroke="rgb(170,218,241)" stroke-linejoin="round" stroke-linecap="round" stroke-miterlimit="4"/><path d=" M 443.408 223.172 C 444.08 229.942 452.111 273.717 425.084 273.717 C 407.692 273.717 380.693 233.259 384.969 221.198" fill-rule="evenodd" fill="rgb(247,127,137)"/><path d=" M 412.969 150.712 C 412.974 142.54 408.056 135.169 400.507 132.038 C 392.959 128.907 384.268 130.632 378.487 136.408 C 372.707 142.185 370.976 150.875 374.102 158.426 C 377.228 165.976 384.595 170.899 392.767 170.899 C 403.919 170.899 412.961 161.863 412.969 150.712 Z " fill-rule="evenodd" fill="rgb(247,127,137)"/><mask id="_mask_v8kFXGtM23Y1sMmdcK4eS6Pmuq8A09hD" x="-200%" y="-200%" width="400%" height="400%"><rect x="-200%" y="-200%" width="400%" height="400%" style="fill:white;"/><path d=" M 420.822 157.085 C 420.822 157.085 408.062 133.785 394.549 130.592" fill="black" stroke="none"/></mask><path d=" M 420.822 157.085 C 420.822 157.085 408.062 133.785 394.549 130.592" fill="none" mask="url(#_mask_v8kFXGtM23Y1sMmdcK4eS6Pmuq8A09hD)" vector-effect="non-scaling-stroke" stroke-width="3.4" stroke="rgb(255,255,255)" stroke-linejoin="round" stroke-linecap="round" stroke-miterlimit="4"/><path d=" M 420.822 157.085 C 420.822 157.085 408.062 133.785 394.549 130.592" fill="none"/><mask id="_mask_O1YOt0IqwSVMBbLDi53i2IibhD8bv1Pi" x="-200%" y="-200%" width="400%" height="400%"><rect x="-200%" y="-200%" width="400%" height="400%" style="fill:white;"/><line x1="395.193" y1="186.455" x2="385.298" y2="169.419" fill="black" stroke="none"/></mask><line x1="395.193" y1="186.455" x2="385.298" y2="169.419" mask="url(#_mask_O1YOt0IqwSVMBbLDi53i2IibhD8bv1Pi)" vector-effect="non-scaling-stroke" stroke-width="3.4" stroke="rgb(255,255,255)" stroke-linejoin="round" stroke-linecap="round" stroke-miterlimit="4"/><mask id="_mask_iZ955fUf0xsGuk5WoaTc6uxvqjSkHmwb" x="-200%" y="-200%" width="400%" height="400%"><rect x="-200%" y="-200%" width="400%" height="400%" style="fill:white;"/><path d=" M 349.774 360.088 C 357.517 339.79 368.632 309.995 375.649 288.642" fill="black" stroke="none"/></mask><path d=" M 349.774 360.088 C 357.517 339.79 368.632 309.995 375.649 288.642" fill="none" mask="url(#_mask_iZ955fUf0xsGuk5WoaTc6uxvqjSkHmwb)" vector-effect="non-scaling-stroke" stroke-width="3.4" stroke="rgb(170,218,241)" stroke-linejoin="round" stroke-linecap="round" stroke-miterlimit="4"/><path d=" M 349.774 360.088 C 357.517 339.79 368.632 309.995 375.649 288.642" fill="none"/><mask id="_mask_jLOGBZZIyLXNRWYmfFvIZINylJm40KHd" x="-200%" y="-200%" width="400%" height="400%"><rect x="-200%" y="-200%" width="400%" height="400%" style="fill:white;"/><path d=" M 489.568 178.917 C 485.949 188.799 476.808 206.835 470.928 210.179 C 468.585 211.549 461.335 212.372 452.097 212.029" fill="black" stroke="none"/></mask><path d=" M 489.568 178.917 C 485.949 188.799 476.808 206.835 470.928 210.179 C 468.585 211.549 461.335 212.372 452.097 212.029" fill="none" mask="url(#_mask_jLOGBZZIyLXNRWYmfFvIZINylJm40KHd)" vector-effect="non-scaling-stroke" stroke-width="6.82" stroke="rgb(201,201,201)" stroke-linejoin="round" stroke-linecap="round" stroke-miterlimit="4"/><path d=" M 489.568 178.917 C 485.949 188.799 476.808 206.835 470.928 210.179 C 468.585 211.549 461.335 212.372 452.097 212.029" fill="none"/><mask id="_mask_vIpaQeZIMMvLweOVQQliPuhOr4bnivjH" x="-200%" y="-200%" width="400%" height="400%"><rect x="-200%" y="-200%" width="400%" height="400%" style="fill:white;"/><line x1="565.605" y1="1049.917" x2="698.368" y2="992.848" fill="black" stroke="none"/></mask><line x1="565.605" y1="1049.917" x2="698.368" y2="992.848" mask="url(#_mask_vIpaQeZIMMvLweOVQQliPuhOr4bnivjH)" vector-effect="non-scaling-stroke" stroke-width="3.4" stroke="rgb(124,124,124)" stroke-linejoin="round" stroke-linecap="round" stroke-miterlimit="4"/><mask id="_mask_hC8OcAm8gKHJ6GcpILTL6fOnCT9pATfX" x="-200%" y="-200%" width="400%" height="400%"><rect x="-200%" y="-200%" width="400%" height="400%" style="fill:white;"/><path d=" M 318.375 1038.459 L 247.45 1036.006 L 174.716 978.718" fill="black" stroke="none"/></mask><path d=" M 318.375 1038.459 L 247.45 1036.006 L 174.716 978.718" fill="none" mask="url(#_mask_hC8OcAm8gKHJ6GcpILTL6fOnCT9pATfX)" vector-effect="non-scaling-stroke" stroke-width="3.4" stroke="rgb(124,124,124)" stroke-linejoin="round" stroke-linecap="round" stroke-miterlimit="4"/><path d=" M 318.375 1038.459 L 247.45 1036.006 L 174.716 978.718" fill="none"/></g></g></svg>