<?xml version="1.0" encoding="UTF-8" standalone="no"?><!-- Generator: Gravit.io --><svg xmlns="http://www.w3.org/2000/svg" xmlns:xlink="http://www.w3.org/1999/xlink" style="isolation:isolate" viewBox="220.486 118.125 537.38 714.353" width="537.38pt" height="714.353pt"><g><g><path d=" M 255.336 523.015 C 311.036 522.205 338.516 723.245 333.836 737.695 C 332.766 740.985 330.226 744.595 326.966 748.045 L 277.966 748.045 C 270.566 732.235 259.966 700.045 251.636 664.485 L 265.636 656.665 L 247.956 647.765 C 244.062 629.465 241.323 610.939 239.756 592.295 L 253.496 589.125 L 245.936 578.125 L 254.616 576.125 L 239.766 560.035 C 241.366 542.585 245.946 528.975 255.336 523.015 Z " fill-rule="evenodd" fill="rgb(170,218,241)"/><mask id="_mask_vkxcepKyTpGAJlgIS7nDMIcf94fhCWX3" x="-200%" y="-200%" width="400%" height="400%"><rect x="-200%" y="-200%" width="400%" height="400%" style="fill:white;"/><line x1="255.476" y1="523.025" x2="306.186" y2="748.025" fill="black" stroke="none"/></mask><line x1="255.476" y1="523.025" x2="306.186" y2="748.025" mask="url(#_mask_vkxcepKyTpGAJlgIS7nDMIcf94fhCWX3)" vector-effect="non-scaling-stroke" stroke-width="4" stroke="rgb(114,165,189)" stroke-linejoin="round" stroke-linecap="round" stroke-miterlimit="4"/><path d=" M 356.046 474.915 C 424.046 500.255 376.846 723.365 363.276 747.385 L 291.336 747.385 C 291.236 747.195 291.086 747.045 290.996 746.855 C 282.996 730.585 284.936 620.495 306.616 545.385 L 324.496 545.795 L 312.296 528.015 C 322.866 498.845 337.146 477.615 356.046 474.915 Z " fill-rule="evenodd" fill="rgb(170,218,241)"/><mask id="_mask_n8wdsiKnYvkpk0yEm1dked8SOWrmeqvA" x="-200%" y="-200%" width="400%" height="400%"><rect x="-200%" y="-200%" width="400%" height="400%" style="fill:white;"/><line x1="417.486" y1="748.055" x2="222.486" y2="748.055" fill="black" stroke="none"/></mask><line x1="417.486" y1="748.055" x2="222.486" y2="748.055" mask="url(#_mask_n8wdsiKnYvkpk0yEm1dked8SOWrmeqvA)" vector-effect="non-scaling-stroke" stroke-width="4" stroke="rgb(114,165,189)" stroke-linejoin="round" stroke-linecap="round" stroke-miterlimit="4"/><mask id="_mask_npiR236AI5emt1r7DfKzQ1DfKIydzogL" x="-200%" y="-200%" width="400%" height="400%"><rect x="-200%" y="-200%" width="400%" height="400%" style="fill:white;"/><line x1="356.206" y1="474.985" x2="323.276" y2="747.525" fill="black" stroke="none"/></mask><line x1="356.206" y1="474.985" x2="323.276" y2="747.525" mask="url(#_mask_npiR236AI5emt1r7DfKzQ1DfKIydzogL)" vector-effect="non-scaling-stroke" stroke-width="4" stroke="rgb(114,165,189)" stroke-linejoin="round" stroke-linecap="round" stroke-miterlimit="4"/><path d=" M 367.166 719.125 C 360.166 724.205 338.976 741.335 337.826 745.985 C 336.676 750.635 348.246 781.605 350.726 783.845 C 353.206 786.085 377.786 792.035 378.956 793.625 C 380.126 795.215 379.186 800.075 378.016 802.465 C 376.846 804.855 339.246 802.155 339.246 802.155 C 339.246 802.155 290.436 753.935 291.046 750.355 C 291.656 746.775 346.416 697.355 346.416 697.355 C 346.416 697.355 374.146 714.055 367.166 719.125 Z " fill-rule="evenodd" fill="rgb(247,127,137)"/><path d=" M 312.956 728.245 C 314.826 740.885 321.446 759.955 342.196 763.625 C 345.416 773.005 349.376 782.625 350.736 783.845 C 353.216 786.075 377.786 792.035 378.956 793.625 C 380.126 795.215 379.166 800.075 378.016 802.465 C 376.866 804.855 339.256 802.155 339.256 802.155 C 339.256 802.155 290.416 753.955 291.036 750.375 C 291.296 748.865 301.636 738.885 312.956 728.245 Z " fill-rule="evenodd" fill="rgb(99,103,253)"/><path d=" M 609.386 761.545 C 611.866 768.125 638.456 831.125 641.276 832.445 C 644.096 833.765 722.866 795.345 723.466 791.555 C 724.066 787.765 720.466 779.725 717.626 780.305 C 687.536 786.305 650.926 788.355 646.936 780.765 C 642.946 773.175 637.816 755.535 637.816 755.535 C 637.816 755.535 606.866 755.015 609.386 761.545 Z " fill-rule="evenodd" fill="rgb(247,127,137)"/><path d=" M 717.636 780.305 C 720.516 779.735 724.106 787.775 723.476 791.555 C 722.846 795.335 644.116 833.795 641.286 832.435 C 640.036 831.825 633.896 818.575 627.446 803.965 C 651.756 807.635 664.686 796.245 670.166 785.595 C 686.115 785.243 702.001 783.472 717.636 780.305 L 717.636 780.305 Z " fill-rule="evenodd" fill="rgb(99,103,253)"/><path d=" M 534.956 580.195 C 454.616 679.805 376.546 732.875 376.546 732.875 L 334.986 690.875 L 454.986 551.255 C 454.986 551.255 445.146 443.475 465.986 423.705 C 486.826 403.935 585.476 517.565 534.956 580.195 Z " fill-rule="evenodd" fill="rgb(196,196,196)"/><path d=" M 568.806 417.255 L 651.206 754.015 L 606.536 776.015 C 606.536 776.015 531.726 579.015 520.666 567.015 C 497.906 542.365 460.966 453.715 464.196 419.405 C 467.426 385.095 568.806 417.255 568.806 417.255 Z " fill-rule="evenodd" fill="rgb(196,196,196)"/><path d=" M 425.256 440.785 C 423.346 447.155 417.156 460.405 423.046 484.115 C 411.886 501.365 417.096 513.515 442.656 516.565 C 446.956 511.315 451.276 507.865 456.066 500.295 C 457.626 493.475 457.486 483.005 457.626 480.165 C 457.896 474.425 446.236 449.035 448.326 438.835 C 450.416 428.635 427.176 434.405 425.256 440.785 Z " fill-rule="evenodd" fill="rgb(247,127,137)"/><mask id="_mask_TOCcwHgSaDyHQXk4LRi7aXDln3O2oGwy" x="-200%" y="-200%" width="400%" height="400%"><rect x="-200%" y="-200%" width="400%" height="400%" style="fill:white;"/><path d=" M 421.226 508.525 C 423.892 505.704 426.279 502.633 428.356 499.355" fill="black" stroke="none"/></mask><path d=" M 421.226 508.525 C 423.892 505.704 426.279 502.633 428.356 499.355" fill="none" mask="url(#_mask_TOCcwHgSaDyHQXk4LRi7aXDln3O2oGwy)" vector-effect="non-scaling-stroke" stroke-width="4" stroke="rgb(203,93,102)" stroke-linejoin="round" stroke-linecap="round" stroke-miterlimit="4"/><path d=" M 421.226 508.525 C 423.892 505.704 426.279 502.633 428.356 499.355" fill="none"/><mask id="_mask_NCLdHCCDMns2eFhnBOPNI6sMAyfsoawV" x="-200%" y="-200%" width="400%" height="400%"><rect x="-200%" y="-200%" width="400%" height="400%" style="fill:white;"/><path d=" M 432.276 514.515 C 436.476 510.455 442.616 501.885 445.766 496.745" fill="black" stroke="none"/></mask><path d=" M 432.276 514.515 C 436.476 510.455 442.616 501.885 445.766 496.745" fill="none" mask="url(#_mask_NCLdHCCDMns2eFhnBOPNI6sMAyfsoawV)" vector-effect="non-scaling-stroke" stroke-width="4" stroke="rgb(203,93,102)" stroke-linejoin="round" stroke-linecap="round" stroke-miterlimit="4"/><path d=" M 432.276 514.515 C 436.476 510.455 442.616 501.885 445.766 496.745" fill="none"/><path d=" M 637.766 415.525 C 643.086 419.835 648.606 424.955 655.696 427.635 C 666.296 430.195 685.696 451.465 685.696 456.045 C 685.696 460.385 681.826 461.845 679.416 462.045 C 677.336 462.175 672.906 457.365 671.786 455.995 C 673.716 460.395 674.786 466.355 672.696 468.225 C 670.606 470.095 667.476 470.745 665.386 468.325 C 661.926 464.325 662.776 459.785 662.456 457.125 C 660.756 453.875 656.126 446.645 654.166 445.765 C 652.796 445.835 650.736 446.315 650.346 448.505 C 649.956 450.695 655.046 455.585 655.616 457.625 C 655.616 460.215 652.796 463.505 650.346 462.855 C 647.566 462.115 638.966 453.765 637.066 451.485 C 634.506 448.415 633.346 441.715 631.976 439.485 C 630.606 437.255 625.286 432.485 624.296 431.485 C 623.306 430.485 632.456 411.225 637.766 415.525 Z " fill-rule="evenodd" fill="rgb(247,127,137)"/><mask id="_mask_uURvzBKN6nbrzhGlF4onZxAQYE9kUdUH" x="-200%" y="-200%" width="400%" height="400%"><rect x="-200%" y="-200%" width="400%" height="400%" style="fill:white;"/><path d=" M 651.546 446.535 C 657.846 441.305 667.676 452.015 672.146 456.335" fill="black" stroke="none"/></mask><path d=" M 651.546 446.535 C 657.846 441.305 667.676 452.015 672.146 456.335" fill="none" mask="url(#_mask_uURvzBKN6nbrzhGlF4onZxAQYE9kUdUH)" vector-effect="non-scaling-stroke" stroke-width="4" stroke="rgb(203,93,102)" stroke-linejoin="round" stroke-linecap="round" stroke-miterlimit="4"/><path d=" M 651.546 446.535 C 657.846 441.305 667.676 452.015 672.146 456.335" fill="none"/><path d=" M 555.176 244.125 C 575.776 263.815 585.866 313.125 591.346 344.865 C 609.416 362.645 645.806 402.015 645.776 411.465 C 645.746 420.915 627.986 436.695 623.466 436.585 C 618.946 436.475 576.866 390.425 570.326 385.045 C 563.786 379.665 550.266 239.415 555.176 244.125 Z " fill-rule="evenodd" fill="rgb(247,209,103)"/><path d=" M 562.796 163.125 C 565.566 160.635 570.266 159.675 570.266 145.975 C 570.266 131.385 552.866 118.125 530.706 118.125 C 495.906 118.125 485.796 148.645 484.596 159.435 C 483.396 170.225 485.286 195.755 482.866 206.125 C 478.006 227.345 457.596 243.725 457.596 279.185 C 457.596 289.965 504.356 280.625 512.726 279.375 C 521.096 278.125 530.866 222.615 530.866 222.615 C 530.866 222.615 560.026 165.615 562.796 163.125 Z " fill-rule="evenodd" fill="rgb(0,0,0)"/><path d=" M 509.646 195.755 C 511.316 202.495 511.556 231.325 510.316 240.945 C 515.986 245.015 537.086 244.545 541.486 240.135 C 540.156 228.255 540.156 217.685 541.486 212.545 C 542.816 207.405 507.976 189.015 509.646 195.755 Z " fill-rule="evenodd" fill="rgb(247,127,137)"/><path d=" M 571.866 174.605 C 571.866 151.525 555.166 132.815 534.556 132.815 C 513.946 132.815 497.246 151.525 497.246 174.605 C 497.246 197.685 513.946 216.385 534.556 216.385 C 555.166 216.385 571.866 197.675 571.866 174.605 Z " fill-rule="evenodd" fill="rgb(247,127,137)"/><path d=" M 527.246 214.185 C 527.796 207.045 533.666 191.535 536.726 189.685 C 539.786 187.835 563.806 184.995 571.866 172.995 C 575.966 176.385 579.326 182.685 578.996 183.995 C 578.316 186.705 571.886 191.295 571.886 191.295 C 571.886 191.295 570.436 208.675 557.886 216.425 C 548.816 222.045 530.866 217.455 527.246 214.185 Z " fill-rule="evenodd" fill="rgb(255,255,255)"/><mask id="_mask_8LoCDrEpm4GNXaxAZWFIXXjbgXjgW11V" x="-200%" y="-200%" width="400%" height="400%"><rect x="-200%" y="-200%" width="400%" height="400%" style="fill:white;"/><path d=" M 537.516 192.005 C 533.326 185.005 522.106 175.845 516.136 173.285" fill="black" stroke="none"/></mask><path d=" M 537.516 192.005 C 533.326 185.005 522.106 175.845 516.136 173.285" fill="none" mask="url(#_mask_8LoCDrEpm4GNXaxAZWFIXXjbgXjgW11V)" vector-effect="non-scaling-stroke" stroke-width="4" stroke="rgb(255,255,255)" stroke-linejoin="round" stroke-linecap="round" stroke-miterlimit="4"/><path d=" M 537.516 192.005 C 533.326 185.005 522.106 175.845 516.136 173.285" fill="none"/><mask id="_mask_MDKGtxZFghhJwkJLgL5S83Z8JS40fK9Q" x="-200%" y="-200%" width="400%" height="400%"><rect x="-200%" y="-200%" width="400%" height="400%" style="fill:white;"/><path d=" M 532.006 202.435 C 532.006 202.435 508.256 206.065 504.406 195.755" fill="black" stroke="none"/></mask><path d=" M 532.006 202.435 C 532.006 202.435 508.256 206.065 504.406 195.755" fill="none" mask="url(#_mask_MDKGtxZFghhJwkJLgL5S83Z8JS40fK9Q)" vector-effect="non-scaling-stroke" stroke-width="4" stroke="rgb(255,255,255)" stroke-linejoin="round" stroke-linecap="round" stroke-miterlimit="4"/><path d=" M 532.006 202.435 C 532.006 202.435 508.256 206.065 504.406 195.755" fill="none"/><path d=" M 555.016 135.445 C 550.126 139.865 547.966 150.905 543.496 156.445 C 536.246 165.445 522.306 166.975 518.016 178.845 C 513.726 190.715 491.276 181.125 491.276 181.125 L 494.156 152.905 L 510.786 135.515 L 536.646 128.125 C 536.646 128.125 559.866 131.015 555.016 135.445 Z " fill-rule="evenodd" fill="rgb(0,0,0)"/><path d=" M 524.426 184.995 C 524.426 179.227 520.952 174.028 515.623 171.82 C 510.295 169.613 504.161 170.833 500.083 174.912 C 496.005 178.99 494.785 185.123 496.992 190.452 C 499.199 195.781 504.399 199.255 510.166 199.255 C 518.04 199.249 524.421 192.868 524.426 184.995 Z " fill-rule="evenodd" fill="rgb(247,127,137)"/><path d=" M 555.686 171.705 C 555.686 168.815 554.416 166.475 552.856 166.475 C 551.296 166.475 550.016 168.815 550.016 171.705 C 550.016 174.595 551.286 176.935 552.856 176.935 C 554.426 176.935 555.686 174.595 555.686 171.705 Z " fill-rule="evenodd" fill="rgb(203,93,102)"/><path d=" M 525.536 225.315 C 464.306 225.315 421.646 341.415 417.206 359.025 C 412.766 376.635 416.206 440.845 417.796 445.725 C 423.866 446.915 445.796 442.895 450.356 440.155 C 454.356 433.475 455.826 382.845 457.456 378.255 C 458.605 374.392 460.631 370.846 463.376 367.895 C 461.596 381.515 463.526 414.955 464.706 419.835 C 465.886 424.715 560.926 424.485 568.136 421.465 C 572.656 419.575 575.846 417.605 576.486 413.045 C 577.486 405.515 574.426 400.535 575.256 394.245 C 576.086 387.955 579.616 386.985 580.686 376.745 C 581.796 366.025 574.566 351.745 576.936 341.165 C 589.456 285.195 559.436 225.315 525.536 225.315 Z " fill-rule="evenodd" fill="rgb(247,209,103)"/><path d=" M 538.706 224.935 L 512.406 224.935 C 510.856 224.935 509.596 226.715 509.596 228.935 L 509.596 239.795 C 509.596 241.985 510.856 243.795 512.406 243.795 L 538.706 243.795 C 540.266 243.795 541.526 242.015 541.526 239.795 L 541.526 228.905 C 541.526 226.715 540.266 224.935 538.706 224.935 Z " fill-rule="evenodd" fill="rgb(247,209,103)"/><mask id="_mask_pxD9D19c9Oa3QM1LCgujELX0Dva0ETDi" x="-200%" y="-200%" width="400%" height="400%"><rect x="-200%" y="-200%" width="400%" height="400%" style="fill:white;"/><line x1="641.296" y1="758.895" x2="542.696" y2="432.995" fill="black" stroke="none"/></mask><line x1="641.296" y1="758.895" x2="542.696" y2="432.995" mask="url(#_mask_pxD9D19c9Oa3QM1LCgujELX0Dva0ETDi)" vector-effect="non-scaling-stroke" stroke-width="4" stroke="rgb(141,141,141)" stroke-linejoin="round" stroke-linecap="round" stroke-miterlimit="4"/><mask id="_mask_Xf0AATK9WxZwEeTqg9ytyfrPpCg05mRK" x="-200%" y="-200%" width="400%" height="400%"><rect x="-200%" y="-200%" width="400%" height="400%" style="fill:white;"/><line x1="599.246" y1="756.975" x2="646.246" y2="733.695" fill="black" stroke="none"/></mask><line x1="599.246" y1="756.975" x2="646.246" y2="733.695" mask="url(#_mask_Xf0AATK9WxZwEeTqg9ytyfrPpCg05mRK)" vector-effect="non-scaling-stroke" stroke-width="4" stroke="rgb(141,141,141)" stroke-linejoin="round" stroke-linecap="round" stroke-miterlimit="4"/><mask id="_mask_DyuW0cSXYbRT5j3Nw8HiYwyyTcURyPwf" x="-200%" y="-200%" width="400%" height="400%"><rect x="-200%" y="-200%" width="400%" height="400%" style="fill:white;"/><path d=" M 546.976 582.695 C 551.746 585.445 561.886 583.985 566.826 580.695" fill="black" stroke="none"/></mask><path d=" M 546.976 582.695 C 551.746 585.445 561.886 583.985 566.826 580.695" fill="none" mask="url(#_mask_DyuW0cSXYbRT5j3Nw8HiYwyyTcURyPwf)" vector-effect="non-scaling-stroke" stroke-width="4" stroke="rgb(141,141,141)" stroke-linejoin="round" stroke-linecap="round" stroke-miterlimit="4"/><path d=" M 546.976 582.695 C 551.746 585.445 561.886 583.985 566.826 580.695" fill="none"/><mask id="_mask_3vmuoypvmyTQZdUlgTEMmGiIGXbWbSDp" x="-200%" y="-200%" width="400%" height="400%"><rect x="-200%" y="-200%" width="400%" height="400%" style="fill:white;"/><line x1="560.076" y1="554.595" x2="539.206" y2="574.265" fill="black" stroke="none"/></mask><line x1="560.076" y1="554.595" x2="539.206" y2="574.265" mask="url(#_mask_3vmuoypvmyTQZdUlgTEMmGiIGXbWbSDp)" vector-effect="non-scaling-stroke" stroke-width="4" stroke="rgb(141,141,141)" stroke-linejoin="round" stroke-linecap="round" stroke-miterlimit="4"/><mask id="_mask_z4UJ3Ivx4biNRdg1Anla7K3V809BIExV" x="-200%" y="-200%" width="400%" height="400%"><rect x="-200%" y="-200%" width="400%" height="400%" style="fill:white;"/><path d=" M 530.706 586.295 C 526.036 575.975 522.486 568.975 520.706 567.005 C 500.416 545.005 468.846 472.175 464.526 432.315" fill="black" stroke="none"/></mask><path d=" M 530.706 586.295 C 526.036 575.975 522.486 568.975 520.706 567.005 C 500.416 545.005 468.846 472.175 464.526 432.315" fill="none" mask="url(#_mask_z4UJ3Ivx4biNRdg1Anla7K3V809BIExV)" vector-effect="non-scaling-stroke" stroke-width="4" stroke="rgb(141,141,141)" stroke-linejoin="round" stroke-linecap="round" stroke-miterlimit="4"/><path d=" M 530.706 586.295 C 526.036 575.975 522.486 568.975 520.706 567.005 C 500.416 545.005 468.846 472.175 464.526 432.315" fill="none"/><mask id="_mask_mGfyvnNCH52pSPdInHYUVoZNpzNn5YXM" x="-200%" y="-200%" width="400%" height="400%"><rect x="-200%" y="-200%" width="400%" height="400%" style="fill:white;"/><path d=" M 362.536 718.705 C 362.536 718.705 497.036 590.305 503.286 585.275 C 503.686 576.275 504.286 558.745 510.516 553.365" fill="black" stroke="none"/></mask><path d=" M 362.536 718.705 C 362.536 718.705 497.036 590.305 503.286 585.275 C 503.686 576.275 504.286 558.745 510.516 553.365" fill="none" mask="url(#_mask_mGfyvnNCH52pSPdInHYUVoZNpzNn5YXM)" vector-effect="non-scaling-stroke" stroke-width="4" stroke="rgb(141,141,141)" stroke-linejoin="round" stroke-linecap="round" stroke-miterlimit="4"/><path d=" M 362.536 718.705 C 362.536 718.705 497.036 590.305 503.286 585.275 C 503.686 576.275 504.286 558.745 510.516 553.365" fill="none"/><mask id="_mask_8ZJO3XoVDwIJHvLv3HQDytvo17xjpZtU" x="-200%" y="-200%" width="400%" height="400%"><rect x="-200%" y="-200%" width="400%" height="400%" style="fill:white;"/><path d=" M 457.966 559.385 C 462.276 562.335 469.646 572.865 470.126 578.945" fill="black" stroke="none"/></mask><path d=" M 457.966 559.385 C 462.276 562.335 469.646 572.865 470.126 578.945" fill="none" mask="url(#_mask_8ZJO3XoVDwIJHvLv3HQDytvo17xjpZtU)" vector-effect="non-scaling-stroke" stroke-width="4" stroke="rgb(141,141,141)" stroke-linejoin="round" stroke-linecap="round" stroke-miterlimit="4"/><path d=" M 457.966 559.385 C 462.276 562.335 469.646 572.865 470.126 578.945" fill="none"/><mask id="_mask_QH1Z47aqJEpN9rLyxlMRsdatoHEAeZRh" x="-200%" y="-200%" width="400%" height="400%"><rect x="-200%" y="-200%" width="400%" height="400%" style="fill:white;"/><path d=" M 462.866 555.325 C 465.276 556.005 472.236 559.965 474.016 563.175" fill="black" stroke="none"/></mask><path d=" M 462.866 555.325 C 465.276 556.005 472.236 559.965 474.016 563.175" fill="none" mask="url(#_mask_QH1Z47aqJEpN9rLyxlMRsdatoHEAeZRh)" vector-effect="non-scaling-stroke" stroke-width="4" stroke="rgb(141,141,141)" stroke-linejoin="round" stroke-linecap="round" stroke-miterlimit="4"/><path d=" M 462.866 555.325 C 465.276 556.005 472.236 559.965 474.016 563.175" fill="none"/><mask id="_mask_kwcaYu4Tf7l4nKVIjBlhcbvYcBaoEHmw" x="-200%" y="-200%" width="400%" height="400%"><rect x="-200%" y="-200%" width="400%" height="400%" style="fill:white;"/><path d=" M 462.656 549.575 L 471.386 548.925 L 485.866 543.455" fill="black" stroke="none"/></mask><path d=" M 462.656 549.575 L 471.386 548.925 L 485.866 543.455" fill="none" mask="url(#_mask_kwcaYu4Tf7l4nKVIjBlhcbvYcBaoEHmw)" vector-effect="non-scaling-stroke" stroke-width="4" stroke="rgb(141,141,141)" stroke-linejoin="round" stroke-linecap="round" stroke-miterlimit="4"/><path d=" M 462.656 549.575 L 471.386 548.925 L 485.866 543.455" fill="none"/><mask id="_mask_eqUidyxWLbMNhQZysBd16QUlAQPjSDdk" x="-200%" y="-200%" width="400%" height="400%"><rect x="-200%" y="-200%" width="400%" height="400%" style="fill:white;"/><line x1="462.956" y1="549.555" x2="470.956" y2="548.955" fill="black" stroke="none"/></mask><line x1="462.956" y1="549.555" x2="470.956" y2="548.955" mask="url(#_mask_eqUidyxWLbMNhQZysBd16QUlAQPjSDdk)" vector-effect="non-scaling-stroke" stroke-width="4" stroke="rgb(141,141,141)" stroke-linejoin="round" stroke-linecap="round" stroke-miterlimit="4"/><mask id="_mask_vNTL8wK904K6lACwS3BfKthDtw7lNtQk" x="-200%" y="-200%" width="400%" height="400%"><rect x="-200%" y="-200%" width="400%" height="400%" style="fill:white;"/><line x1="347.986" y1="675.725" x2="394.866" y2="719.305" fill="black" stroke="none"/></mask><line x1="347.986" y1="675.725" x2="394.866" y2="719.305" mask="url(#_mask_vNTL8wK904K6lACwS3BfKthDtw7lNtQk)" vector-effect="non-scaling-stroke" stroke-width="4" stroke="rgb(141,141,141)" stroke-linejoin="round" stroke-linecap="round" stroke-miterlimit="4"/><mask id="_mask_YWPsKGK1BDuTfWi6D1Drvk5bUTzsCyWC" x="-200%" y="-200%" width="400%" height="400%"><rect x="-200%" y="-200%" width="400%" height="400%" style="fill:white;"/><path d=" M 575.086 442.935 C 575.086 442.935 540.276 449.235 518.756 446.295" fill="black" stroke="none"/></mask><path d=" M 575.086 442.935 C 575.086 442.935 540.276 449.235 518.756 446.295" fill="none" mask="url(#_mask_YWPsKGK1BDuTfWi6D1Drvk5bUTzsCyWC)" vector-effect="non-scaling-stroke" stroke-width="4" stroke="rgb(141,141,141)" stroke-linejoin="round" stroke-linecap="round" stroke-miterlimit="4"/><path d=" M 575.086 442.935 C 575.086 442.935 540.276 449.235 518.756 446.295" fill="none"/><mask id="_mask_pEA5NIeYnleUQOKCoGlOc9e0BKMpqz6V" x="-200%" y="-200%" width="400%" height="400%"><rect x="-200%" y="-200%" width="400%" height="400%" style="fill:white;"/><path d=" M 571.006 423.125 C 574.006 421.535 576.006 419.565 576.486 416.035 C 577.486 408.515 574.426 403.525 575.256 397.245 C 576.086 390.965 579.616 389.985 580.686 379.745 C 581.796 369.025 574.566 354.745 576.936 344.165 C 581.318 323.953 580.707 302.978 575.156 283.055" fill="black" stroke="none"/></mask><path d=" M 571.006 423.125 C 574.006 421.535 576.006 419.565 576.486 416.035 C 577.486 408.515 574.426 403.525 575.256 397.245 C 576.086 390.965 579.616 389.985 580.686 379.745 C 581.796 369.025 574.566 354.745 576.936 344.165 C 581.318 323.953 580.707 302.978 575.156 283.055" fill="none" mask="url(#_mask_pEA5NIeYnleUQOKCoGlOc9e0BKMpqz6V)" vector-effect="non-scaling-stroke" stroke-width="4" stroke="rgb(255,50,116)" stroke-linejoin="round" stroke-linecap="round" stroke-miterlimit="4"/><path d=" M 571.006 423.125 C 574.006 421.535 576.006 419.565 576.486 416.035 C 577.486 408.515 574.426 403.525 575.256 397.245 C 576.086 390.965 579.616 389.985 580.686 379.745 C 581.796 369.025 574.566 354.745 576.936 344.165 C 581.318 323.953 580.707 302.978 575.156 283.055" fill="none"/><mask id="_mask_Z1ZybZL76d7PEhqKWJVSUXBnqCHrndpC" x="-200%" y="-200%" width="400%" height="400%"><rect x="-200%" y="-200%" width="400%" height="400%" style="fill:white;"/><path d=" M 613.106 428.205 C 616.766 426.115 635.526 409.025 640.016 399.845" fill="black" stroke="none"/></mask><path d=" M 613.106 428.205 C 616.766 426.115 635.526 409.025 640.016 399.845" fill="none" mask="url(#_mask_Z1ZybZL76d7PEhqKWJVSUXBnqCHrndpC)" vector-effect="non-scaling-stroke" stroke-width="4" stroke="rgb(255,50,116)" stroke-linejoin="round" stroke-linecap="round" stroke-miterlimit="4"/><path d=" M 613.106 428.205 C 616.766 426.115 635.526 409.025 640.016 399.845" fill="none"/><mask id="_mask_ALFLvNVAd933aEs6peX6Xhm8UXPYKT67" x="-200%" y="-200%" width="400%" height="400%"><rect x="-200%" y="-200%" width="400%" height="400%" style="fill:white;"/><line x1="618.016" y1="424.355" x2="627.726" y2="434.765" fill="black" stroke="none"/></mask><line x1="618.016" y1="424.355" x2="627.726" y2="434.765" mask="url(#_mask_ALFLvNVAd933aEs6peX6Xhm8UXPYKT67)" vector-effect="non-scaling-stroke" stroke-width="4" stroke="rgb(255,50,116)" stroke-linejoin="round" stroke-linecap="round" stroke-miterlimit="4"/><mask id="_mask_g3LHnnei2PsyjPRw7tPlSlZZ4p7ywifi" x="-200%" y="-200%" width="400%" height="400%"><rect x="-200%" y="-200%" width="400%" height="400%" style="fill:white;"/><line x1="624.256" y1="419.545" x2="633.956" y2="429.965" fill="black" stroke="none"/></mask><line x1="624.256" y1="419.545" x2="633.956" y2="429.965" mask="url(#_mask_g3LHnnei2PsyjPRw7tPlSlZZ4p7ywifi)" vector-effect="non-scaling-stroke" stroke-width="4" stroke="rgb(255,50,116)" stroke-linejoin="round" stroke-linecap="round" stroke-miterlimit="4"/><mask id="_mask_ufTAUHpYwy2psIGaM8w8DucazNceh9Dy" x="-200%" y="-200%" width="400%" height="400%"><rect x="-200%" y="-200%" width="400%" height="400%" style="fill:white;"/><line x1="630.316" y1="413.945" x2="639.486" y2="423.785" fill="black" stroke="none"/></mask><line x1="630.316" y1="413.945" x2="639.486" y2="423.785" mask="url(#_mask_ufTAUHpYwy2psIGaM8w8DucazNceh9Dy)" vector-effect="non-scaling-stroke" stroke-width="4" stroke="rgb(255,50,116)" stroke-linejoin="round" stroke-linecap="round" stroke-miterlimit="4"/><mask id="_mask_jHYDPIY2TsHDlWtWn4trZRJHxDXNmNLJ" x="-200%" y="-200%" width="400%" height="400%"><rect x="-200%" y="-200%" width="400%" height="400%" style="fill:white;"/><line x1="635.166" y1="407.595" x2="644.106" y2="417.185" fill="black" stroke="none"/></mask><line x1="635.166" y1="407.595" x2="644.106" y2="417.185" mask="url(#_mask_jHYDPIY2TsHDlWtWn4trZRJHxDXNmNLJ)" vector-effect="non-scaling-stroke" stroke-width="4" stroke="rgb(255,50,116)" stroke-linejoin="round" stroke-linecap="round" stroke-miterlimit="4"/><mask id="_mask_Tc9KTPuQOdYfOHZZmbr1SYG2iLuUYZTm" x="-200%" y="-200%" width="400%" height="400%"><rect x="-200%" y="-200%" width="400%" height="400%" style="fill:white;"/><line x1="416.226" y1="432.925" x2="453.226" y2="428.925" fill="black" stroke="none"/></mask><line x1="416.226" y1="432.925" x2="453.226" y2="428.925" mask="url(#_mask_Tc9KTPuQOdYfOHZZmbr1SYG2iLuUYZTm)" vector-effect="non-scaling-stroke" stroke-width="4" stroke="rgb(255,50,116)" stroke-linejoin="round" stroke-linecap="round" stroke-miterlimit="4"/><mask id="_mask_Hwlp7CHILx6Pqjhbo2fBibMxCfWiK2RH" x="-200%" y="-200%" width="400%" height="400%"><rect x="-200%" y="-200%" width="400%" height="400%" style="fill:white;"/><line x1="422.336" y1="432.265" x2="423.336" y2="448.835" fill="black" stroke="none"/></mask><line x1="422.336" y1="432.265" x2="423.336" y2="448.835" mask="url(#_mask_Hwlp7CHILx6Pqjhbo2fBibMxCfWiK2RH)" vector-effect="non-scaling-stroke" stroke-width="4" stroke="rgb(255,50,116)" stroke-linejoin="round" stroke-linecap="round" stroke-miterlimit="4"/><mask id="_mask_KtPAYljniGxZygzuWjOQGI4c7AwgfdpN" x="-200%" y="-200%" width="400%" height="400%"><rect x="-200%" y="-200%" width="400%" height="400%" style="fill:white;"/><line x1="431.586" y1="431.255" x2="433.006" y2="447.675" fill="black" stroke="none"/></mask><line x1="431.586" y1="431.255" x2="433.006" y2="447.675" mask="url(#_mask_KtPAYljniGxZygzuWjOQGI4c7AwgfdpN)" vector-effect="non-scaling-stroke" stroke-width="4" stroke="rgb(255,50,116)" stroke-linejoin="round" stroke-linecap="round" stroke-miterlimit="4"/><mask id="_mask_KosFqmw6ZxOrhvbxvlzVjtDoUsErd2SH" x="-200%" y="-200%" width="400%" height="400%"><rect x="-200%" y="-200%" width="400%" height="400%" style="fill:white;"/><line x1="440.686" y1="430.265" x2="441.756" y2="445.945" fill="black" stroke="none"/></mask><line x1="440.686" y1="430.265" x2="441.756" y2="445.945" mask="url(#_mask_KosFqmw6ZxOrhvbxvlzVjtDoUsErd2SH)" vector-effect="non-scaling-stroke" stroke-width="4" stroke="rgb(255,50,116)" stroke-linejoin="round" stroke-linecap="round" stroke-miterlimit="4"/><mask id="_mask_HlkK84GBlRTioFR7umM8Cbx2X050o8fs" x="-200%" y="-200%" width="400%" height="400%"><rect x="-200%" y="-200%" width="400%" height="400%" style="fill:white;"/><path d=" M 414.226 390.065 C 425.567 390.055 435.318 382.029 437.508 370.902 C 439.698 359.775 433.717 348.652 423.226 344.345" fill="black" stroke="none"/></mask><path d=" M 414.226 390.065 C 425.567 390.055 435.318 382.029 437.508 370.902 C 439.698 359.775 433.717 348.652 423.226 344.345" fill="none" mask="url(#_mask_HlkK84GBlRTioFR7umM8Cbx2X050o8fs)" vector-effect="non-scaling-stroke" stroke-width="4" stroke="rgb(255,50,116)" stroke-linejoin="round" stroke-linecap="round" stroke-miterlimit="4"/><path d=" M 414.226 390.065 C 425.567 390.055 435.318 382.029 437.508 370.902 C 439.698 359.775 433.717 348.652 423.226 344.345" fill="none"/><mask id="_mask_WWnkZugif6UObmYclx6ZSyGXAYjcm4Nu" x="-200%" y="-200%" width="400%" height="400%"><rect x="-200%" y="-200%" width="400%" height="400%" style="fill:white;"/><path d=" M 463.366 370.895 C 466.646 365.515 504.826 305.275 506.806 302.895" fill="black" stroke="none"/></mask><path d=" M 463.366 370.895 C 466.646 365.515 504.826 305.275 506.806 302.895" fill="none" mask="url(#_mask_WWnkZugif6UObmYclx6ZSyGXAYjcm4Nu)" vector-effect="non-scaling-stroke" stroke-width="4" stroke="rgb(255,50,116)" stroke-linejoin="round" stroke-linecap="round" stroke-miterlimit="4"/><path d=" M 463.366 370.895 C 466.646 365.515 504.826 305.275 506.806 302.895" fill="none"/><mask id="_mask_3CUrSGQ2CwrvS3wfoAVGdmTbW4e2uvQ2" x="-200%" y="-200%" width="400%" height="400%"><rect x="-200%" y="-200%" width="400%" height="400%" style="fill:white;"/><line x1="515.466" y1="303.185" x2="506.766" y2="302.665" fill="black" stroke="none"/></mask><line x1="515.466" y1="303.185" x2="506.766" y2="302.665" mask="url(#_mask_3CUrSGQ2CwrvS3wfoAVGdmTbW4e2uvQ2)" vector-effect="non-scaling-stroke" stroke-width="4" stroke="rgb(255,50,116)" stroke-linejoin="round" stroke-linecap="round" stroke-miterlimit="4"/><mask id="_mask_Ovos1SpYwk6ywwNIjgFqnKVy0rEOsxLs" x="-200%" y="-200%" width="400%" height="400%"><rect x="-200%" y="-200%" width="400%" height="400%" style="fill:white;"/><line x1="514.196" y1="312.845" x2="506.866" y2="302.675" fill="black" stroke="none"/></mask><line x1="514.196" y1="312.845" x2="506.866" y2="302.675" mask="url(#_mask_Ovos1SpYwk6ywwNIjgFqnKVy0rEOsxLs)" vector-effect="non-scaling-stroke" stroke-width="4" stroke="rgb(255,50,116)" stroke-linejoin="round" stroke-linecap="round" stroke-miterlimit="4"/><mask id="_mask_fehFb8Ele3i5qFvoNiCqLYBoD5c4D2Yd" x="-200%" y="-200%" width="400%" height="400%"><rect x="-200%" y="-200%" width="400%" height="400%" style="fill:white;"/><line x1="508.036" y1="318.125" x2="506.906" y2="302.825" fill="black" stroke="none"/></mask><line x1="508.036" y1="318.125" x2="506.906" y2="302.825" mask="url(#_mask_fehFb8Ele3i5qFvoNiCqLYBoD5c4D2Yd)" vector-effect="non-scaling-stroke" stroke-width="4" stroke="rgb(255,50,116)" stroke-linejoin="round" stroke-linecap="round" stroke-miterlimit="4"/><mask id="_mask_ZVKela7XHHYft2sMvnd6nXjnzaERyrEx" x="-200%" y="-200%" width="400%" height="400%"><rect x="-200%" y="-200%" width="400%" height="400%" style="fill:white;"/><line x1="558.076" y1="397.125" x2="531.226" y2="384.015" fill="black" stroke="none"/></mask><line x1="558.076" y1="397.125" x2="531.226" y2="384.015" mask="url(#_mask_ZVKela7XHHYft2sMvnd6nXjnzaERyrEx)" vector-effect="non-scaling-stroke" stroke-width="4" stroke="rgb(255,50,116)" stroke-linejoin="round" stroke-linecap="round" stroke-miterlimit="4"/><mask id="_mask_ilkTcAI7KQxy9tslV9MtQ9dSDV6X74EX" x="-200%" y="-200%" width="400%" height="400%"><rect x="-200%" y="-200%" width="400%" height="400%" style="fill:white;"/><line x1="531.686" y1="380.485" x2="567.096" y2="387.595" fill="black" stroke="none"/></mask><line x1="531.686" y1="380.485" x2="567.096" y2="387.595" mask="url(#_mask_ilkTcAI7KQxy9tslV9MtQ9dSDV6X74EX)" vector-effect="non-scaling-stroke" stroke-width="4" stroke="rgb(255,50,116)" stroke-linejoin="round" stroke-linecap="round" stroke-miterlimit="4"/><mask id="_mask_gfC9ZU69QDsC9al6UVuRhHQ1aHy62qNQ" x="-200%" y="-200%" width="400%" height="400%"><rect x="-200%" y="-200%" width="400%" height="400%" style="fill:white;"/><line x1="562.686" y1="382.215" x2="533.076" y2="362.715" fill="black" stroke="none"/></mask><line x1="562.686" y1="382.215" x2="533.076" y2="362.715" mask="url(#_mask_gfC9ZU69QDsC9al6UVuRhHQ1aHy62qNQ)" vector-effect="non-scaling-stroke" stroke-width="4" stroke="rgb(255,50,116)" stroke-linejoin="round" stroke-linecap="round" stroke-miterlimit="4"/><mask id="_mask_uV3nNGgXmqkmXnfWAxRtbeabpoDAs8Dt" x="-200%" y="-200%" width="400%" height="400%"><rect x="-200%" y="-200%" width="400%" height="400%" style="fill:white;"/><path d=" M 524.976 243.735 L 538.706 243.735 C 540.266 243.735 541.526 241.955 541.526 239.735 L 541.526 228.905 C 541.526 226.715 540.266 224.905 538.706 224.905 L 512.406 224.905 C 511.503 224.958 510.694 225.482 510.276 226.285" fill="black" stroke="none"/></mask><path d=" M 524.976 243.735 L 538.706 243.735 C 540.266 243.735 541.526 241.955 541.526 239.735 L 541.526 228.905 C 541.526 226.715 540.266 224.905 538.706 224.905 L 512.406 224.905 C 511.503 224.958 510.694 225.482 510.276 226.285" fill="none" mask="url(#_mask_uV3nNGgXmqkmXnfWAxRtbeabpoDAs8Dt)" vector-effect="non-scaling-stroke" stroke-width="4" stroke="rgb(255,50,116)" stroke-linejoin="round" stroke-linecap="round" stroke-miterlimit="4"/><path d=" M 524.976 243.735 L 538.706 243.735 C 540.266 243.735 541.526 241.955 541.526 239.735 L 541.526 228.905 C 541.526 226.715 540.266 224.905 538.706 224.905 L 512.406 224.905 C 511.503 224.958 510.694 225.482 510.276 226.285" fill="none"/><mask id="_mask_GRyY25Dn4EzFxbKkUBTP6mSfYhA4Q97C" x="-200%" y="-200%" width="400%" height="400%"><rect x="-200%" y="-200%" width="400%" height="400%" style="fill:white;"/><line x1="534.606" y1="224.935" x2="534.426" y2="243.735" fill="black" stroke="none"/></mask><line x1="534.606" y1="224.935" x2="534.426" y2="243.735" mask="url(#_mask_GRyY25Dn4EzFxbKkUBTP6mSfYhA4Q97C)" vector-effect="non-scaling-stroke" stroke-width="4" stroke="rgb(255,50,116)" stroke-linejoin="round" stroke-linecap="round" stroke-miterlimit="4"/><mask id="_mask_e7TAz0Z9tqrBBZygn2nVOXznXrbryPuB" x="-200%" y="-200%" width="400%" height="400%"><rect x="-200%" y="-200%" width="400%" height="400%" style="fill:white;"/><path d=" M 526.866 225.195 L 526.776 234.335 L 526.686 243.995" fill="black" stroke="none"/></mask><path d=" M 526.866 225.195 L 526.776 234.335 L 526.686 243.995" fill="none" mask="url(#_mask_e7TAz0Z9tqrBBZygn2nVOXznXrbryPuB)" vector-effect="non-scaling-stroke" stroke-width="4" stroke="rgb(255,50,116)" stroke-linejoin="round" stroke-linecap="round" stroke-miterlimit="4"/><path d=" M 526.866 225.195 L 526.776 234.335 L 526.686 243.995" fill="none"/><mask id="_mask_Y15ETFby1NEM9X0dB1hl0fBO7NIUdQNZ" x="-200%" y="-200%" width="400%" height="400%"><rect x="-200%" y="-200%" width="400%" height="400%" style="fill:white;"/><path d=" M 518.206 225.195 L 518.116 234.335 L 518.026 243.995" fill="black" stroke="none"/></mask><path d=" M 518.206 225.195 L 518.116 234.335 L 518.026 243.995" fill="none" mask="url(#_mask_Y15ETFby1NEM9X0dB1hl0fBO7NIUdQNZ)" vector-effect="non-scaling-stroke" stroke-width="4" stroke="rgb(255,50,116)" stroke-linejoin="round" stroke-linecap="round" stroke-miterlimit="4"/><path d=" M 518.206 225.195 L 518.116 234.335 L 518.026 243.995" fill="none"/><mask id="_mask_6Tejs57j5AUqsS1b9Udn0zbQRCcbgsfp" x="-200%" y="-200%" width="400%" height="400%"><rect x="-200%" y="-200%" width="400%" height="400%" style="fill:white;"/><line x1="635.816" y1="822.385" x2="721.666" y2="783.895" fill="black" stroke="none"/></mask><line x1="635.816" y1="822.385" x2="721.666" y2="783.895" mask="url(#_mask_6Tejs57j5AUqsS1b9Udn0zbQRCcbgsfp)" vector-effect="non-scaling-stroke" stroke-width="4" stroke="rgb(255,255,255)" stroke-linejoin="round" stroke-linecap="round" stroke-miterlimit="4"/><mask id="_mask_3TUtpz1Vwg82rhbQwBoCiyeGDue09Qq1" x="-200%" y="-200%" width="400%" height="400%"><rect x="-200%" y="-200%" width="400%" height="400%" style="fill:white;"/><path d=" M 296.106 744.505 L 342.166 794.005 L 379.166 798.895" fill="black" stroke="none"/></mask><path d=" M 296.106 744.505 L 342.166 794.005 L 379.166 798.895" fill="none" mask="url(#_mask_3TUtpz1Vwg82rhbQwBoCiyeGDue09Qq1)" vector-effect="non-scaling-stroke" stroke-width="4" stroke="rgb(255,255,255)" stroke-linejoin="round" stroke-linecap="round" stroke-miterlimit="4"/><path d=" M 296.106 744.505 L 342.166 794.005 L 379.166 798.895" fill="none"/><path d=" M 744.686 204.995 C 751.036 202.315 750.236 187.255 743.486 181.485 C 736.736 175.715 719.786 170.725 713.116 152.745 C 710.696 147.855 703.466 154.975 701.576 167.125 C 700.526 196.035 730.756 210.875 744.686 204.995 Z " fill-rule="evenodd" fill="rgb(170,218,241)"/><mask id="_mask_TytSrRZBAxUJv8U6UcJRvZjr2HOvuHai" x="-200%" y="-200%" width="400%" height="400%"><rect x="-200%" y="-200%" width="400%" height="400%" style="fill:white;"/><path d=" M 714.486 170.195 C 715.496 176.575 728.866 205.335 755.866 212.655" fill="black" stroke="none"/></mask><path d=" M 714.486 170.195 C 715.496 176.575 728.866 205.335 755.866 212.655" fill="none" mask="url(#_mask_TytSrRZBAxUJv8U6UcJRvZjr2HOvuHai)" vector-effect="non-scaling-stroke" stroke-width="4" stroke="rgb(114,165,189)" stroke-linejoin="round" stroke-linecap="round" stroke-miterlimit="4"/><path d=" M 714.486 170.195 C 715.496 176.575 728.866 205.335 755.866 212.655" fill="none"/><mask id="_mask_tLv8AigWHgEc3eYuXLSQMpPjeWSghSb5" x="-200%" y="-200%" width="400%" height="400%"><rect x="-200%" y="-200%" width="400%" height="400%" style="fill:white;"/><path d=" M 571.866 172.995 C 575.966 176.385 579.326 182.685 578.996 183.995 C 578.316 186.705 571.886 191.295 571.886 191.295 C 571.886 191.295 570.436 208.675 557.886 216.425 C 553.476 219.145 546.976 219.425 541.036 218.675" fill="black" stroke="none"/></mask><path d=" M 571.866 172.995 C 575.966 176.385 579.326 182.685 578.996 183.995 C 578.316 186.705 571.886 191.295 571.886 191.295 C 571.886 191.295 570.436 208.675 557.886 216.425 C 553.476 219.145 546.976 219.425 541.036 218.675" fill="none" mask="url(#_mask_tLv8AigWHgEc3eYuXLSQMpPjeWSghSb5)" vector-effect="non-scaling-stroke" stroke-width="4" stroke="rgb(201,201,201)" stroke-linejoin="round" stroke-linecap="round" stroke-miterlimit="4"/><path d=" M 571.866 172.995 C 575.966 176.385 579.326 182.685 578.996 183.995 C 578.316 186.705 571.886 191.295 571.886 191.295 C 571.886 191.295 570.436 208.675 557.886 216.425 C 553.476 219.145 546.976 219.425 541.036 218.675" fill="none"/><mask id="_mask_c7N2i1GfijO5PeKGpnz36fyFKJLKqBIS" x="-200%" y="-200%" width="400%" height="400%"><rect x="-200%" y="-200%" width="400%" height="400%" style="fill:white;"/><path d=" M 289.296 741.345 C 284.146 716.875 285.996 637.525 300.086 571.685" fill="black" stroke="none"/></mask><path d=" M 289.296 741.345 C 284.146 716.875 285.996 637.525 300.086 571.685" fill="none" mask="url(#_mask_c7N2i1GfijO5PeKGpnz36fyFKJLKqBIS)" vector-effect="non-scaling-stroke" stroke-width="4" stroke="rgb(114,165,189)" stroke-linejoin="round" stroke-linecap="round" stroke-miterlimit="4"/><path d=" M 289.296 741.345 C 284.146 716.875 285.996 637.525 300.086 571.685" fill="none"/></g></g></svg>