<?xml version="1.0" encoding="UTF-8" standalone="no"?><!-- Generator: Gravit.io --><svg xmlns="http://www.w3.org/2000/svg" xmlns:xlink="http://www.w3.org/1999/xlink" style="isolation:isolate" viewBox="83.28 109.363 586.72 681.273" width="586.72pt" height="681.273pt"><g><g><mask id="_mask_IwefWYw1CJAd8jph8m0peYTqphw5wY2o" x="-200%" y="-200%" width="400%" height="400%"><rect x="-200%" y="-200%" width="400%" height="400%" style="fill:white;"/><path d=" M 453.47 298.137 L 396.62 298.137 C 395.515 298.137 394.62 299.032 394.62 300.137 L 394.62 328.137 C 394.62 329.241 395.515 330.137 396.62 330.137 L 453.47 330.137 C 454.575 330.137 455.47 329.241 455.47 328.137 L 455.47 300.137 C 455.47 299.032 454.575 298.137 453.47 298.137 Z " fill="black" stroke="none"/></mask><path d=" M 453.47 298.137 L 396.62 298.137 C 395.515 298.137 394.62 299.032 394.62 300.137 L 394.62 328.137 C 394.62 329.241 395.515 330.137 396.62 330.137 L 453.47 330.137 C 454.575 330.137 455.47 329.241 455.47 328.137 L 455.47 300.137 C 455.47 299.032 454.575 298.137 453.47 298.137 Z " fill="none" mask="url(#_mask_IwefWYw1CJAd8jph8m0peYTqphw5wY2o)" vector-effect="non-scaling-stroke" stroke-width="4" stroke="rgb(170,218,241)" stroke-linejoin="round" stroke-linecap="round" stroke-miterlimit="4"/><path d=" M 453.47 298.137 L 396.62 298.137 C 395.515 298.137 394.62 299.032 394.62 300.137 L 394.62 328.137 C 394.62 329.241 395.515 330.137 396.62 330.137 L 453.47 330.137 C 454.575 330.137 455.47 329.241 455.47 328.137 L 455.47 300.137 C 455.47 299.032 454.575 298.137 453.47 298.137 Z " fill="none"/><mask id="_mask_BfKYCnUP3n1J53fGXcspApFG7IER3KxU" x="-200%" y="-200%" width="400%" height="400%"><rect x="-200%" y="-200%" width="400%" height="400%" style="fill:white;"/><path d=" M 423.02 266.067 L 366.18 266.067 C 365.075 266.067 364.18 266.962 364.18 268.067 L 364.18 296.067 C 364.18 297.171 365.075 298.067 366.18 298.067 L 423.02 298.067 C 424.125 298.067 425.02 297.171 425.02 296.067 L 425.02 268.067 C 425.02 266.962 424.125 266.067 423.02 266.067 Z " fill="black" stroke="none"/></mask><path d=" M 423.02 266.067 L 366.18 266.067 C 365.075 266.067 364.18 266.962 364.18 268.067 L 364.18 296.067 C 364.18 297.171 365.075 298.067 366.18 298.067 L 423.02 298.067 C 424.125 298.067 425.02 297.171 425.02 296.067 L 425.02 268.067 C 425.02 266.962 424.125 266.067 423.02 266.067 Z " fill="none" mask="url(#_mask_BfKYCnUP3n1J53fGXcspApFG7IER3KxU)" vector-effect="non-scaling-stroke" stroke-width="4" stroke="rgb(170,218,241)" stroke-linejoin="round" stroke-linecap="round" stroke-miterlimit="4"/><path d=" M 423.02 266.067 L 366.18 266.067 C 365.075 266.067 364.18 266.962 364.18 268.067 L 364.18 296.067 C 364.18 297.171 365.075 298.067 366.18 298.067 L 423.02 298.067 C 424.125 298.067 425.02 297.171 425.02 296.067 L 425.02 268.067 C 425.02 266.962 424.125 266.067 423.02 266.067 Z " fill="none"/><mask id="_mask_RWXD4OgBJkl8cT9jxodPK5zVI60FomIo" x="-200%" y="-200%" width="400%" height="400%"><rect x="-200%" y="-200%" width="400%" height="400%" style="fill:white;"/><path d=" M 392.57 298.137 L 335.73 298.137 C 334.625 298.137 333.73 299.032 333.73 300.137 L 333.73 328.137 C 333.73 329.241 334.625 330.137 335.73 330.137 L 392.57 330.137 C 393.675 330.137 394.57 329.241 394.57 328.137 L 394.57 300.137 C 394.57 299.032 393.675 298.137 392.57 298.137 Z " fill="black" stroke="none"/></mask><path d=" M 392.57 298.137 L 335.73 298.137 C 334.625 298.137 333.73 299.032 333.73 300.137 L 333.73 328.137 C 333.73 329.241 334.625 330.137 335.73 330.137 L 392.57 330.137 C 393.675 330.137 394.57 329.241 394.57 328.137 L 394.57 300.137 C 394.57 299.032 393.675 298.137 392.57 298.137 Z " fill="none" mask="url(#_mask_RWXD4OgBJkl8cT9jxodPK5zVI60FomIo)" vector-effect="non-scaling-stroke" stroke-width="4" stroke="rgb(170,218,241)" stroke-linejoin="round" stroke-linecap="round" stroke-miterlimit="4"/><path d=" M 392.57 298.137 L 335.73 298.137 C 334.625 298.137 333.73 299.032 333.73 300.137 L 333.73 328.137 C 333.73 329.241 334.625 330.137 335.73 330.137 L 392.57 330.137 C 393.675 330.137 394.57 329.241 394.57 328.137 L 394.57 300.137 C 394.57 299.032 393.675 298.137 392.57 298.137 Z " fill="none"/><mask id="_mask_9OBllJcbb3mqENxCyIxtna8QaZs3Cj6I" x="-200%" y="-200%" width="400%" height="400%"><rect x="-200%" y="-200%" width="400%" height="400%" style="fill:white;"/><path d=" M 482.95 330.197 L 426.11 330.197 C 425.005 330.197 424.11 331.092 424.11 332.197 L 424.11 360.197 C 424.11 361.301 425.005 362.197 426.11 362.197 L 482.95 362.197 C 484.055 362.197 484.95 361.301 484.95 360.197 L 484.95 332.197 C 484.95 331.092 484.055 330.197 482.95 330.197 Z " fill="black" stroke="none"/></mask><path d=" M 482.95 330.197 L 426.11 330.197 C 425.005 330.197 424.11 331.092 424.11 332.197 L 424.11 360.197 C 424.11 361.301 425.005 362.197 426.11 362.197 L 482.95 362.197 C 484.055 362.197 484.95 361.301 484.95 360.197 L 484.95 332.197 C 484.95 331.092 484.055 330.197 482.95 330.197 Z " fill="none" mask="url(#_mask_9OBllJcbb3mqENxCyIxtna8QaZs3Cj6I)" vector-effect="non-scaling-stroke" stroke-width="4" stroke="rgb(170,218,241)" stroke-linejoin="round" stroke-linecap="round" stroke-miterlimit="4"/><path d=" M 482.95 330.197 L 426.11 330.197 C 425.005 330.197 424.11 331.092 424.11 332.197 L 424.11 360.197 C 424.11 361.301 425.005 362.197 426.11 362.197 L 482.95 362.197 C 484.055 362.197 484.95 361.301 484.95 360.197 L 484.95 332.197 C 484.95 331.092 484.055 330.197 482.95 330.197 Z " fill="none"/><path d=" M 388.66 674.207 L 581.28 674.207 C 583.931 674.207 586.08 676.356 586.08 679.007 L 586.08 679.007 C 586.074 681.654 583.927 683.797 581.28 683.797 L 388.66 683.797 C 386.013 683.797 383.866 681.654 383.86 679.007 L 383.86 679.007 C 383.86 676.356 386.009 674.207 388.66 674.207 L 388.66 674.207 Z " fill-rule="evenodd" fill="rgb(255,255,255)"/><path d=" M 88.07 703.087 L 280.72 703.087 C 281.991 703.084 283.211 703.588 284.11 704.487 C 285.009 705.385 285.513 706.605 285.51 707.877 L 285.51 707.877 C 285.513 709.148 285.009 710.368 284.11 711.267 C 283.211 712.165 281.991 712.669 280.72 712.667 L 88.07 712.667 C 85.425 712.667 83.28 710.522 83.28 707.877 L 83.28 707.877 C 83.28 705.231 85.425 703.087 88.07 703.087 L 88.07 703.087 Z " fill-rule="evenodd" fill="rgb(255,255,255)"/><path d=" M 507.78 677.947 C 474.953 677.961 445.278 697.492 432.28 727.637 C 421.623 719.04 406.436 718.962 395.69 727.447 C 388.304 709.852 371.556 697.986 352.508 696.852 C 333.459 695.718 315.422 705.512 306 722.107 C 296.262 716.087 284.329 714.778 273.518 718.544 C 262.707 722.31 254.17 730.75 250.28 741.517 C 251.16 741.517 251.99 741.267 252.88 741.267 L 633.59 741.267 C 630.757 730.859 622.688 722.691 612.316 719.731 C 601.943 716.771 590.779 719.451 582.88 726.797 C 569.699 697.103 540.267 677.959 507.78 677.947 L 507.78 677.947 Z " fill-rule="evenodd" fill="rgb(222,222,222)"/><path d=" M 229.65 731.687 L 665.21 731.687 C 667.857 731.692 670 733.839 670 736.487 L 670 736.487 C 669.994 739.13 667.853 741.271 665.21 741.277 L 229.65 741.277 C 227.007 741.271 224.866 739.13 224.86 736.487 L 224.86 736.487 C 224.86 733.839 227.003 731.692 229.65 731.687 L 229.65 731.687 Z " fill-rule="evenodd" fill="rgb(222,222,222)"/><path d=" M 158.95 676.757 L 146.28 694.507 L 172.38 727.217 L 184.38 706.217 L 158.95 676.757 Z " fill-rule="evenodd" fill="rgb(247,127,137)"/><path d=" M 145.11 686.437 L 115.11 721.097 L 162.24 776.097 C 162.24 776.097 193.52 775.757 203.4 775.757 C 203.2 763.757 194.48 738.897 170.2 739.857 C 175.1 731.257 178.58 724.167 178.58 724.167 L 145.11 686.437 Z " fill-rule="evenodd" fill="rgb(99,103,253)"/><mask id="_mask_WMrftGS7aeJcKXwn1YHQF0OzE23VtJwQ" x="-200%" y="-200%" width="400%" height="400%"><rect x="-200%" y="-200%" width="400%" height="400%" style="fill:white;"/><path d=" M 170.18 739.887 C 156.61 735.697 150.44 741.157 140.92 751.257 C 134.27 758.317 120.41 757.717 111.92 753.667" fill="black" stroke="none"/></mask><path d=" M 170.18 739.887 C 156.61 735.697 150.44 741.157 140.92 751.257 C 134.27 758.317 120.41 757.717 111.92 753.667" fill="none" mask="url(#_mask_WMrftGS7aeJcKXwn1YHQF0OzE23VtJwQ)" vector-effect="non-scaling-stroke" stroke-width="4" stroke="rgb(76,79,217)" stroke-linejoin="round" stroke-linecap="round" stroke-miterlimit="4"/><path d=" M 170.18 739.887 C 156.61 735.697 150.44 741.157 140.92 751.257 C 134.27 758.317 120.41 757.717 111.92 753.667" fill="none"/><mask id="_mask_s9Nx6m787LQE281eCb1KKHMZc9VixJUZ" x="-200%" y="-200%" width="400%" height="400%"><rect x="-200%" y="-200%" width="400%" height="400%" style="fill:white;"/><path d=" M 139.08 783.967 C 143.552 785.887 148.17 787.449 152.89 788.637 C 165.31 777.637 172.66 751.527 170.33 739.887" fill="black" stroke="none"/></mask><path d=" M 139.08 783.967 C 143.552 785.887 148.17 787.449 152.89 788.637 C 165.31 777.637 172.66 751.527 170.33 739.887" fill="none" mask="url(#_mask_s9Nx6m787LQE281eCb1KKHMZc9VixJUZ)" vector-effect="non-scaling-stroke" stroke-width="4" stroke="rgb(76,79,217)" stroke-linejoin="round" stroke-linecap="round" stroke-miterlimit="4"/><path d=" M 139.08 783.967 C 143.552 785.887 148.17 787.449 152.89 788.637 C 165.31 777.637 172.66 751.527 170.33 739.887" fill="none"/><mask id="_mask_7Y1M18BY6lOpy6aUWdqOcmShiDkNSNeD" x="-200%" y="-200%" width="400%" height="400%"><rect x="-200%" y="-200%" width="400%" height="400%" style="fill:white;"/><path d=" M 132.99 700.077 C 138.969 704.602 141.965 712.056 140.78 719.461 C 139.595 726.866 134.423 733.013 127.33 735.447" fill="black" stroke="none"/></mask><path d=" M 132.99 700.077 C 138.969 704.602 141.965 712.056 140.78 719.461 C 139.595 726.866 134.423 733.013 127.33 735.447" fill="none" mask="url(#_mask_7Y1M18BY6lOpy6aUWdqOcmShiDkNSNeD)" vector-effect="non-scaling-stroke" stroke-width="4" stroke="rgb(76,79,217)" stroke-linejoin="round" stroke-linecap="round" stroke-miterlimit="4"/><path d=" M 132.99 700.077 C 138.969 704.602 141.965 712.056 140.78 719.461 C 139.595 726.866 134.423 733.013 127.33 735.447" fill="none"/><mask id="_mask_CvhAF2zDQVADSS92vqaT1SxJqzqEKVcY" x="-200%" y="-200%" width="400%" height="400%"><rect x="-200%" y="-200%" width="400%" height="400%" style="fill:white;"/><path d=" M 120.34 715.027 L 166.73 765.687 L 201.1 763.687" fill="black" stroke="none"/></mask><path d=" M 120.34 715.027 L 166.73 765.687 L 201.1 763.687" fill="none" mask="url(#_mask_CvhAF2zDQVADSS92vqaT1SxJqzqEKVcY)" vector-effect="non-scaling-stroke" stroke-width="4" stroke="rgb(76,79,217)" stroke-linejoin="round" stroke-linecap="round" stroke-miterlimit="4"/><path d=" M 120.34 715.027 L 166.73 765.687 L 201.1 763.687" fill="none"/><path d=" M 233.74 530.097 L 154.42 675.467 L 184.79 711.017 L 328.12 563.117 L 296.66 518.657 L 233.74 530.097 Z " fill-rule="evenodd" fill="rgb(185,185,185)"/><mask id="_mask_lWhq1Fh7iLIpU01fCoTpL2AZCEnFh2jR" x="-200%" y="-200%" width="400%" height="400%"><rect x="-200%" y="-200%" width="400%" height="400%" style="fill:white;"/><line x1="201.28" y1="694.007" x2="165.9" y2="654.417" fill="black" stroke="none"/></mask><line x1="201.28" y1="694.007" x2="165.9" y2="654.417" mask="url(#_mask_lWhq1Fh7iLIpU01fCoTpL2AZCEnFh2jR)" vector-effect="non-scaling-stroke" stroke-width="4" stroke="rgb(255,50,116)" stroke-linejoin="round" stroke-linecap="round" stroke-miterlimit="4"/><g opacity="0.51"><path d=" M 296.65 518.667 L 233.75 530.107 L 201.75 588.797 L 256.68 587.487 L 274.59 618.357 L 328.12 563.137 L 296.65 518.667 Z " fill-rule="evenodd" fill="rgb(46,46,46)"/></g><mask id="_mask_ox6UAsHb4FeBSZ0ZDwygV8qFEziY0P5j" x="-200%" y="-200%" width="400%" height="400%"><rect x="-200%" y="-200%" width="400%" height="400%" style="fill:white;"/><path d=" M 167.84 691.177 C 200.34 653.107 299.84 537.077 299.84 537.077" fill="black" stroke="none"/></mask><path d=" M 167.84 691.177 C 200.34 653.107 299.84 537.077 299.84 537.077" fill="none" mask="url(#_mask_ox6UAsHb4FeBSZ0ZDwygV8qFEziY0P5j)" vector-effect="non-scaling-stroke" stroke-width="4" stroke="rgb(255,50,116)" stroke-linejoin="round" stroke-linecap="round" stroke-miterlimit="4"/><path d=" M 167.84 691.177 C 200.34 653.107 299.84 537.077 299.84 537.077" fill="none"/><path d=" M 383.86 724.457 L 393.44 744.457 L 436.38 736.687 L 429.28 712.597 L 383.86 724.457 Z " fill-rule="evenodd" fill="rgb(247,127,137)"/><path d=" M 387.07 744.537 L 401.74 786.537 C 401.74 786.537 486.61 769.537 493.06 767.867 C 481.06 739.667 456.44 744.397 445.64 747.097 C 442.932 741.959 440.515 736.675 438.4 731.267 L 387.07 744.537 Z " fill-rule="evenodd" fill="rgb(99,103,253)"/><mask id="_mask_0V5X6MbxQNnugTr9ztoB3HyYw1F5vE66" x="-200%" y="-200%" width="400%" height="400%"><rect x="-200%" y="-200%" width="400%" height="400%" style="fill:white;"/><path d=" M 444.92 737.437 C 446.66 731.777 450.7 728.007 453.92 729.007 C 457.14 730.007 458.38 735.387 456.64 741.007 C 454.9 746.627 450.86 750.427 447.64 749.437 C 444.42 748.447 443.18 743.087 444.92 737.437 Z " fill="black" stroke="none"/></mask><path d=" M 444.92 737.437 C 446.66 731.777 450.7 728.007 453.92 729.007 C 457.14 730.007 458.38 735.387 456.64 741.007 C 454.9 746.627 450.86 750.427 447.64 749.437 C 444.42 748.447 443.18 743.087 444.92 737.437 Z " fill="none" mask="url(#_mask_0V5X6MbxQNnugTr9ztoB3HyYw1F5vE66)" vector-effect="non-scaling-stroke" stroke-width="4" stroke="rgb(76,79,217)" stroke-linejoin="round" stroke-linecap="round" stroke-miterlimit="4"/><path d=" M 444.92 737.437 C 446.66 731.777 450.7 728.007 453.92 729.007 C 457.14 730.007 458.38 735.387 456.64 741.007 C 454.9 746.627 450.86 750.427 447.64 749.437 C 444.42 748.447 443.18 743.087 444.92 737.437 Z " fill="none"/><mask id="_mask_SFN479kE7Zxm5lCcAwhD4zCtQQeGEfRK" x="-200%" y="-200%" width="400%" height="400%"><rect x="-200%" y="-200%" width="400%" height="400%" style="fill:white;"/><path d=" M 459.14 736.717 C 463.64 732.107 469.24 730.657 471.66 733.487 C 474.08 736.317 472.38 742.347 467.88 746.957 C 463.38 751.567 457.78 753.027 455.36 750.197 C 452.94 747.367 454.64 741.357 459.14 736.717 Z " fill="black" stroke="none"/></mask><path d=" M 459.14 736.717 C 463.64 732.107 469.24 730.657 471.66 733.487 C 474.08 736.317 472.38 742.347 467.88 746.957 C 463.38 751.567 457.78 753.027 455.36 750.197 C 452.94 747.367 454.64 741.357 459.14 736.717 Z " fill="none" mask="url(#_mask_SFN479kE7Zxm5lCcAwhD4zCtQQeGEfRK)" vector-effect="non-scaling-stroke" stroke-width="4" stroke="rgb(76,79,217)" stroke-linejoin="round" stroke-linecap="round" stroke-miterlimit="4"/><path d=" M 459.14 736.717 C 463.64 732.107 469.24 730.657 471.66 733.487 C 474.08 736.317 472.38 742.347 467.88 746.957 C 463.38 751.567 457.78 753.027 455.36 750.197 C 452.94 747.367 454.64 741.357 459.14 736.717 Z " fill="none"/><path d=" M 419.99 406.957 C 425.31 411.257 430.83 416.377 437.92 419.057 C 448.52 421.627 467.92 442.887 467.92 447.467 C 467.92 451.807 464.05 453.267 461.64 453.467 C 459.56 453.597 455.13 448.787 454.01 447.417 C 455.94 451.817 457.06 457.777 454.92 459.647 C 452.78 461.517 449.7 462.167 447.6 459.747 C 444.15 455.747 445 451.207 444.68 448.547 C 442.98 445.297 438.35 438.067 436.39 437.187 C 435.02 437.257 432.96 437.737 432.57 439.927 C 432.18 442.117 437.27 447.007 437.84 449.047 C 437.84 451.637 435.01 454.927 432.57 454.277 C 429.79 453.537 421.19 445.187 419.29 442.907 C 416.73 439.837 415.57 433.147 414.2 430.907 C 412.83 428.667 407.51 423.907 406.52 422.907 C 405.53 421.907 414.68 402.647 419.99 406.957 Z " fill-rule="evenodd" fill="rgb(247,127,137)"/><path d=" M 366.89 302.127 C 386 318.357 414.6 382.277 432.98 398.007 C 431.06 407.877 400.61 444.637 379.09 435.877 C 352.13 424.897 352.46 289.877 366.89 302.127 Z " fill-rule="evenodd" fill="rgb(59,65,97)"/><path d=" M 381.74 393.237 L 438.4 714.967 L 379.04 728.967 L 301.09 524.427 L 320.45 382.277 L 381.74 393.237 Z " fill-rule="evenodd" fill="rgb(185,185,185)"/><mask id="_mask_rL39nmpGGzuldrkoYWHLLpCKXYq6Eckr" x="-200%" y="-200%" width="400%" height="400%"><rect x="-200%" y="-200%" width="400%" height="400%" style="fill:white;"/><line x1="331.71" y1="604.767" x2="303.84" y2="531.627" fill="black" stroke="none"/></mask><line x1="331.71" y1="604.767" x2="303.84" y2="531.627" mask="url(#_mask_rL39nmpGGzuldrkoYWHLLpCKXYq6Eckr)" vector-effect="non-scaling-stroke" stroke-width="4" stroke="rgb(255,50,116)" stroke-linejoin="round" stroke-linecap="round" stroke-miterlimit="4"/><mask id="_mask_JrEw7tZOVS3uywXABUaM7I51O8lvbyRw" x="-200%" y="-200%" width="400%" height="400%"><rect x="-200%" y="-200%" width="400%" height="400%" style="fill:white;"/><line x1="404.85" y1="722.887" x2="313.28" y2="434.927" fill="black" stroke="none"/></mask><line x1="404.85" y1="722.887" x2="313.28" y2="434.927" mask="url(#_mask_JrEw7tZOVS3uywXABUaM7I51O8lvbyRw)" vector-effect="non-scaling-stroke" stroke-width="4" stroke="rgb(255,50,116)" stroke-linejoin="round" stroke-linecap="round" stroke-miterlimit="4"/><mask id="_mask_tInXcdEG3ucC0brZVreUBEhdMClT0Y2R" x="-200%" y="-200%" width="400%" height="400%"><rect x="-200%" y="-200%" width="400%" height="400%" style="fill:white;"/><path d=" M 386.76 421.777 C 378.76 425.127 337.76 432.697 321.92 431.037" fill="black" stroke="none"/></mask><path d=" M 386.76 421.777 C 378.76 425.127 337.76 432.697 321.92 431.037" fill="none" mask="url(#_mask_tInXcdEG3ucC0brZVreUBEhdMClT0Y2R)" vector-effect="non-scaling-stroke" stroke-width="4" stroke="rgb(255,50,116)" stroke-linejoin="round" stroke-linecap="round" stroke-miterlimit="4"/><path d=" M 386.76 421.777 C 378.76 425.127 337.76 432.697 321.92 431.037" fill="none"/><path d=" M 214.83 344.997 L 322.34 356.407 C 328.75 357.087 333.34 363.127 332.64 369.907 L 315.18 534.357 C 314.46 541.127 308.69 546.067 302.28 545.357 L 194.77 533.987 C 188.36 533.307 183.77 527.267 184.47 520.487 L 201.92 356.037 C 202.64 349.257 208.42 344.357 214.83 344.997 Z " fill-rule="evenodd" fill="rgb(99,103,253)"/><mask id="_mask_K1eyUPnpDKCZ3e9zloB6AdJThbmBHo1T" x="-200%" y="-200%" width="400%" height="400%"><rect x="-200%" y="-200%" width="400%" height="400%" style="fill:white;"/><path d=" M 218.36 445.197 C 218.36 422.553 236.716 404.197 259.36 404.197 C 282.004 404.197 300.36 422.553 300.36 445.197 C 300.36 467.84 282.004 486.197 259.36 486.197 C 236.716 486.197 218.36 467.84 218.36 445.197 Z " fill="black" stroke="none"/></mask><path d=" M 218.36 445.197 C 218.36 422.553 236.716 404.197 259.36 404.197 C 282.004 404.197 300.36 422.553 300.36 445.197 C 300.36 467.84 282.004 486.197 259.36 486.197 C 236.716 486.197 218.36 467.84 218.36 445.197 Z " fill="none" mask="url(#_mask_K1eyUPnpDKCZ3e9zloB6AdJThbmBHo1T)" vector-effect="non-scaling-stroke" stroke-width="4" stroke="rgb(76,79,217)" stroke-linejoin="round" stroke-linecap="round" stroke-miterlimit="4"/><path d=" M 218.36 445.197 C 218.36 422.553 236.716 404.197 259.36 404.197 C 282.004 404.197 300.36 422.553 300.36 445.197 C 300.36 467.84 282.004 486.197 259.36 486.197 C 236.716 486.197 218.36 467.84 218.36 445.197 Z " fill="none"/><path d=" M 256.72 161.257 C 256.72 151.047 262.47 142.767 269.57 142.767 C 276.67 142.767 282.43 151.047 282.43 161.257 C 282.43 171.467 276.67 179.747 269.57 179.747 C 262.47 179.747 256.72 171.467 256.72 161.257 Z " fill-rule="evenodd" fill="rgb(247,127,137)"/><path d=" M 263.96 170.957 C 263.96 154.344 273.967 139.368 289.316 133.012 C 304.664 126.656 322.329 130.171 334.074 141.919 C 345.82 153.667 349.331 171.334 342.971 186.68 C 336.611 202.027 321.632 212.031 305.02 212.027 C 294.128 212.027 283.683 207.699 275.983 199.997 C 268.282 192.294 263.957 181.848 263.96 170.957 Z " fill-rule="evenodd" fill="rgb(247,127,137)"/><path d=" M 250.06 433.037 C 248.15 439.407 241.96 452.657 247.85 476.367 C 236.69 493.617 241.9 505.767 267.46 508.817 C 271.76 503.567 276.07 500.127 280.87 492.547 C 282.43 485.727 282.29 475.257 282.43 472.417 C 282.7 466.677 274.29 443.967 276.38 433.767 C 278.47 423.567 251.97 426.657 250.06 433.037 Z " fill-rule="evenodd" fill="rgb(247,127,137)"/><path d=" M 301.02 225.807 C 241.94 225.807 219.45 349.957 225.9 429.397 C 238.15 437.127 287.04 440.137 301.02 436.467 C 304.02 422.517 305.02 364.137 305.69 354.637 C 338.32 357.837 332.69 362.887 328.75 406.557 C 345.75 407.147 368.65 402.557 385.75 395.377 C 388.15 365.437 370.55 225.807 301.02 225.807 Z " fill-rule="evenodd" fill="rgb(59,65,97)"/><mask id="_mask_5fZ99BwwwKLk5QnDCBTt1H52L89O7TBn" x="-200%" y="-200%" width="400%" height="400%"><rect x="-200%" y="-200%" width="400%" height="400%" style="fill:white;"/><path d=" M 218.36 352.527 L 226.16 277.877 C 228.701 253.56 250.473 235.906 274.79 238.447 L 283.16 239.317 C 307.477 241.857 325.13 263.63 322.59 287.947 L 314.59 364.697" fill="black" stroke="none"/></mask><path d=" M 218.36 352.527 L 226.16 277.877 C 228.701 253.56 250.473 235.906 274.79 238.447 L 283.16 239.317 C 307.477 241.857 325.13 263.63 322.59 287.947 L 314.59 364.697" fill="none" mask="url(#_mask_5fZ99BwwwKLk5QnDCBTt1H52L89O7TBn)" vector-effect="non-scaling-stroke" stroke-width="13.54" stroke="rgb(99,103,253)" stroke-linejoin="round" stroke-linecap="round" stroke-miterlimit="4"/><path d=" M 218.36 352.527 L 226.16 277.877 C 228.701 253.56 250.473 235.906 274.79 238.447 L 283.16 239.317 C 307.477 241.857 325.13 263.63 322.59 287.947 L 314.59 364.697" fill="none"/><path d=" M 276.85 194.987 C 279.93 208.217 280.7 226.847 280.19 234.167 C 288.02 238.787 308.32 241.997 318.08 228.897 C 313.46 217.727 312.43 212.327 312.82 205.897 C 313.21 199.467 273.77 181.757 276.85 194.987 Z " fill-rule="evenodd" fill="rgb(247,127,137)"/><path d=" M 289.94 209.167 C 289.07 202.067 294.18 185.357 297.1 183.037 C 324.55 184.037 341.59 164.487 344.36 159.137 C 346.922 162.538 348.788 166.412 349.85 170.537 C 350.56 173.257 349.94 175.167 345.29 179.067 C 344.11 195.097 329.56 220.547 289.94 209.167 Z " fill-rule="evenodd" fill="rgb(255,255,255)"/><mask id="_mask_c2qg85x9OztKkmLZg2zvtRh8UYZTZyWM" x="-200%" y="-200%" width="400%" height="400%"><rect x="-200%" y="-200%" width="400%" height="400%" style="fill:white;"/><path d=" M 299.28 184.727 C 299.28 184.727 274.28 164.267 267.02 163.267" fill="black" stroke="none"/></mask><path d=" M 299.28 184.727 C 299.28 184.727 274.28 164.267 267.02 163.267" fill="none" mask="url(#_mask_c2qg85x9OztKkmLZg2zvtRh8UYZTZyWM)" vector-effect="non-scaling-stroke" stroke-width="6.1" stroke="rgb(255,255,255)" stroke-linejoin="round" stroke-linecap="round" stroke-miterlimit="4"/><path d=" M 299.28 184.727 C 299.28 184.727 274.28 164.267 267.02 163.267" fill="none"/><path d=" M 319.67 163.297 C 319.67 159.737 320.83 156.847 322.26 156.847 C 323.69 156.847 324.85 159.737 324.85 163.297 C 324.85 166.857 323.69 169.747 322.26 169.747 C 320.83 169.747 319.67 166.857 319.67 163.297 Z " fill-rule="evenodd" fill="rgb(203,93,102)"/><mask id="_mask_iVtawlquUObxanQqjBMTj5kSbBP1B98i" x="-200%" y="-200%" width="400%" height="400%"><rect x="-200%" y="-200%" width="400%" height="400%" style="fill:white;"/><path d=" M 303.22 414.267 C 293.71 415.637 241.97 413.397 224.86 406.357" fill="black" stroke="none"/></mask><path d=" M 303.22 414.267 C 293.71 415.637 241.97 413.397 224.86 406.357" fill="none" mask="url(#_mask_iVtawlquUObxanQqjBMTj5kSbBP1B98i)" vector-effect="non-scaling-stroke" stroke-width="4" stroke="rgb(115,121,153)" stroke-linejoin="round" stroke-linecap="round" stroke-miterlimit="4"/><path d=" M 303.22 414.267 C 293.71 415.637 241.97 413.397 224.86 406.357" fill="none"/><mask id="_mask_FrvJ5MuvfCnmvzotJUuWMmA3eQj4J7K0" x="-200%" y="-200%" width="400%" height="400%"><rect x="-200%" y="-200%" width="400%" height="400%" style="fill:white;"/><path d=" M 305.69 354.637 C 305.02 335.067 322.83 271.527 287.63 245.397" fill="black" stroke="none"/></mask><path d=" M 305.69 354.637 C 305.02 335.067 322.83 271.527 287.63 245.397" fill="none" mask="url(#_mask_FrvJ5MuvfCnmvzotJUuWMmA3eQj4J7K0)" vector-effect="non-scaling-stroke" stroke-width="4" stroke="rgb(115,121,153)" stroke-linejoin="round" stroke-linecap="round" stroke-miterlimit="4"/><path d=" M 305.69 354.637 C 305.02 335.067 322.83 271.527 287.63 245.397" fill="none"/><mask id="_mask_cV4tyNRvyPdV0ARIcDbYvPYYhuJkjJv4" x="-200%" y="-200%" width="400%" height="400%"><rect x="-200%" y="-200%" width="400%" height="400%" style="fill:white;"/><line x1="305.7" y1="354.527" x2="287.63" y2="362.267" fill="black" stroke="none"/></mask><line x1="305.7" y1="354.527" x2="287.63" y2="362.267" mask="url(#_mask_cV4tyNRvyPdV0ARIcDbYvPYYhuJkjJv4)" vector-effect="non-scaling-stroke" stroke-width="4" stroke="rgb(115,121,153)" stroke-linejoin="round" stroke-linecap="round" stroke-miterlimit="4"/><mask id="_mask_nheAbXYKcbNm7qFdZD89EgoWNpPt6AYZ" x="-200%" y="-200%" width="400%" height="400%"><rect x="-200%" y="-200%" width="400%" height="400%" style="fill:white;"/><line x1="288.42" y1="352.807" x2="305.75" y2="354.027" fill="black" stroke="none"/></mask><line x1="288.42" y1="352.807" x2="305.75" y2="354.027" mask="url(#_mask_nheAbXYKcbNm7qFdZD89EgoWNpPt6AYZ)" vector-effect="non-scaling-stroke" stroke-width="4" stroke="rgb(115,121,153)" stroke-linejoin="round" stroke-linecap="round" stroke-miterlimit="4"/><mask id="_mask_V0SZpQEqw3d68jt6SUZNPAkAHacyRhIq" x="-200%" y="-200%" width="400%" height="400%"><rect x="-200%" y="-200%" width="400%" height="400%" style="fill:white;"/><line x1="290.99" y1="340.617" x2="305.77" y2="353.897" fill="black" stroke="none"/></mask><line x1="290.99" y1="340.617" x2="305.77" y2="353.897" mask="url(#_mask_V0SZpQEqw3d68jt6SUZNPAkAHacyRhIq)" vector-effect="non-scaling-stroke" stroke-width="4" stroke="rgb(115,121,153)" stroke-linejoin="round" stroke-linecap="round" stroke-miterlimit="4"/><mask id="_mask_7XFshKbEvfhYNn0LIwd3tgsQaVu2mKMs" x="-200%" y="-200%" width="400%" height="400%"><rect x="-200%" y="-200%" width="400%" height="400%" style="fill:white;"/><path d=" M 385.8 395.357 C 386.8 382.267 384.04 348.217 374.8 314.037" fill="black" stroke="none"/></mask><path d=" M 385.8 395.357 C 386.8 382.267 384.04 348.217 374.8 314.037" fill="none" mask="url(#_mask_7XFshKbEvfhYNn0LIwd3tgsQaVu2mKMs)" vector-effect="non-scaling-stroke" stroke-width="4" stroke="rgb(115,121,153)" stroke-linejoin="round" stroke-linecap="round" stroke-miterlimit="4"/><path d=" M 385.8 395.357 C 386.8 382.267 384.04 348.217 374.8 314.037" fill="none"/><mask id="_mask_bSn3VlkHrOTnisehiFAP5sQlNIJnIvDe" x="-200%" y="-200%" width="400%" height="400%"><rect x="-200%" y="-200%" width="400%" height="400%" style="fill:white;"/><path d=" M 419.39 382.147 C 411.39 396.267 392.39 411.517 385.49 414.547" fill="black" stroke="none"/></mask><path d=" M 419.39 382.147 C 411.39 396.267 392.39 411.517 385.49 414.547" fill="none" mask="url(#_mask_bSn3VlkHrOTnisehiFAP5sQlNIJnIvDe)" vector-effect="non-scaling-stroke" stroke-width="4" stroke="rgb(115,121,153)" stroke-linejoin="round" stroke-linecap="round" stroke-miterlimit="4"/><path d=" M 419.39 382.147 C 411.39 396.267 392.39 411.517 385.49 414.547" fill="none"/><mask id="_mask_gPtFFnWK9WrvQxGA9IMIewofEjc7JtGf" x="-200%" y="-200%" width="400%" height="400%"><rect x="-200%" y="-200%" width="400%" height="400%" style="fill:white;"/><path d=" M 363.77 427.187 C 362.93 422.127 359.91 403.337 359.91 403.337" fill="black" stroke="none"/></mask><path d=" M 363.77 427.187 C 362.93 422.127 359.91 403.337 359.91 403.337" fill="none" mask="url(#_mask_gPtFFnWK9WrvQxGA9IMIewofEjc7JtGf)" vector-effect="non-scaling-stroke" stroke-width="4" stroke="rgb(255,50,116)" stroke-linejoin="round" stroke-linecap="round" stroke-miterlimit="4"/><path d=" M 363.77 427.187 C 362.93 422.127 359.91 403.337 359.91 403.337" fill="none"/><mask id="_mask_uIQgKzTOA9tjcVbbNYP9ihtgdXGNqnvP" x="-200%" y="-200%" width="400%" height="400%"><rect x="-200%" y="-200%" width="400%" height="400%" style="fill:white;"/><line x1="434.87" y1="694.957" x2="369.98" y2="705.197" fill="black" stroke="none"/></mask><line x1="434.87" y1="694.957" x2="369.98" y2="705.197" mask="url(#_mask_uIQgKzTOA9tjcVbbNYP9ihtgdXGNqnvP)" vector-effect="non-scaling-stroke" stroke-width="4" stroke="rgb(255,50,116)" stroke-linejoin="round" stroke-linecap="round" stroke-miterlimit="4"/><mask id="_mask_lByRM0FtdVl2fJriUtea0kGC3efJuj79" x="-200%" y="-200%" width="400%" height="400%"><rect x="-200%" y="-200%" width="400%" height="400%" style="fill:white;"/><path d=" M 416.28 588.667 C 415.131 588.795 413.976 588.859 412.82 588.857 C 396.973 588.859 383.621 577.026 381.72 561.294 C 379.82 545.561 389.969 530.888 405.36 527.117" fill="black" stroke="none"/></mask><path d=" M 416.28 588.667 C 415.131 588.795 413.976 588.859 412.82 588.857 C 396.973 588.859 383.621 577.026 381.72 561.294 C 379.82 545.561 389.969 530.888 405.36 527.117" fill="none" mask="url(#_mask_lByRM0FtdVl2fJriUtea0kGC3efJuj79)" vector-effect="non-scaling-stroke" stroke-width="4" stroke="rgb(255,50,116)" stroke-linejoin="round" stroke-linecap="round" stroke-miterlimit="4"/><path d=" M 416.28 588.667 C 415.131 588.795 413.976 588.859 412.82 588.857 C 396.973 588.859 383.621 577.026 381.72 561.294 C 379.82 545.561 389.969 530.888 405.36 527.117" fill="none"/><mask id="_mask_6OqHdYLYH3Se333NbarfYmUd4nfld9J5" x="-200%" y="-200%" width="400%" height="400%"><rect x="-200%" y="-200%" width="400%" height="400%" style="fill:white;"/><line x1="398.95" y1="778.567" x2="489.72" y2="761.357" fill="black" stroke="none"/></mask><line x1="398.95" y1="778.567" x2="489.72" y2="761.357" mask="url(#_mask_6OqHdYLYH3Se333NbarfYmUd4nfld9J5)" vector-effect="non-scaling-stroke" stroke-width="4" stroke="rgb(76,79,217)" stroke-linejoin="round" stroke-linecap="round" stroke-miterlimit="4"/><mask id="_mask_y0Z10POKBA76MwwMDeOrI2GlkLHm6gso" x="-200%" y="-200%" width="400%" height="400%"><rect x="-200%" y="-200%" width="400%" height="400%" style="fill:white;"/><path d=" M 391.69 758.837 C 397.936 756.386 404.989 757.182 410.532 760.962 C 416.074 764.742 419.39 771.017 419.39 777.727 C 419.393 779.488 419.168 781.243 418.72 782.947" fill="black" stroke="none"/></mask><path d=" M 391.69 758.837 C 397.936 756.386 404.989 757.182 410.532 760.962 C 416.074 764.742 419.39 771.017 419.39 777.727 C 419.393 779.488 419.168 781.243 418.72 782.947" fill="none" mask="url(#_mask_y0Z10POKBA76MwwMDeOrI2GlkLHm6gso)" vector-effect="non-scaling-stroke" stroke-width="4" stroke="rgb(76,79,217)" stroke-linejoin="round" stroke-linecap="round" stroke-miterlimit="4"/><path d=" M 391.69 758.837 C 397.936 756.386 404.989 757.182 410.532 760.962 C 416.074 764.742 419.39 771.017 419.39 777.727 C 419.393 779.488 419.168 781.243 418.72 782.947" fill="none"/><mask id="_mask_x1u7ZMQbfkd8gSjro5seKs5mSWBVqf4t" x="-200%" y="-200%" width="400%" height="400%"><rect x="-200%" y="-200%" width="400%" height="400%" style="fill:white;"/><path d=" M 290.37 207.667 C 287.23 206.477 274.61 202.077 268.05 188.857" fill="black" stroke="none"/></mask><path d=" M 290.37 207.667 C 287.23 206.477 274.61 202.077 268.05 188.857" fill="none" mask="url(#_mask_x1u7ZMQbfkd8gSjro5seKs5mSWBVqf4t)" vector-effect="non-scaling-stroke" stroke-width="6.1" stroke="rgb(255,255,255)" stroke-linejoin="round" stroke-linecap="round" stroke-miterlimit="4"/><path d=" M 290.37 207.667 C 287.23 206.477 274.61 202.077 268.05 188.857" fill="none"/><path d=" M 255.98 178.777 C 255.976 173.424 259.198 168.596 264.142 166.546 C 269.087 164.495 274.78 165.626 278.565 169.412 C 282.35 173.197 283.481 178.889 281.431 183.834 C 279.381 188.779 274.553 192.001 269.2 191.997 C 261.901 191.991 255.986 186.075 255.98 178.777 L 255.98 178.777 Z " fill-rule="evenodd" fill="rgb(247,127,137)"/><mask id="_mask_xa78vHy2nMFaw9Qta94zyiYr4o0RDOzB" x="-200%" y="-200%" width="400%" height="400%"><rect x="-200%" y="-200%" width="400%" height="400%" style="fill:white;"/><path d=" M 281.85 182.647 C 280.145 188.204 275.013 191.997 269.2 191.997" fill="black" stroke="none"/></mask><path d=" M 281.85 182.647 C 280.145 188.204 275.013 191.997 269.2 191.997" fill="none" mask="url(#_mask_xa78vHy2nMFaw9Qta94zyiYr4o0RDOzB)" vector-effect="non-scaling-stroke" stroke-width="4" stroke="rgb(203,93,102)" stroke-linejoin="round" stroke-linecap="round" stroke-miterlimit="4"/><path d=" M 281.85 182.647 C 280.145 188.204 275.013 191.997 269.2 191.997" fill="none"/><mask id="_mask_zBpPGaHtHnIqeWaszRtIcjLvhxL26Ajr" x="-200%" y="-200%" width="400%" height="400%"><rect x="-200%" y="-200%" width="400%" height="400%" style="fill:white;"/><path d=" M 258.77 170.647 C 260.679 168.195 263.391 166.495 266.43 165.847" fill="black" stroke="none"/></mask><path d=" M 258.77 170.647 C 260.679 168.195 263.391 166.495 266.43 165.847" fill="none" mask="url(#_mask_zBpPGaHtHnIqeWaszRtIcjLvhxL26Ajr)" vector-effect="non-scaling-stroke" stroke-width="4" stroke="rgb(203,93,102)" stroke-linejoin="round" stroke-linecap="round" stroke-miterlimit="4"/><path d=" M 258.77 170.647 C 260.679 168.195 263.391 166.495 266.43 165.847" fill="none"/><path d=" M 290.28 112.497 C 278.845 115.13 268.924 122.2 262.701 132.149 C 256.479 142.098 254.464 154.112 257.1 165.547 L 343.33 145.677 C 340.696 134.241 333.627 124.321 323.678 118.098 C 313.729 111.875 301.715 109.86 290.28 112.497 Z " fill-rule="evenodd" fill="rgb(215,213,213)"/><path d=" M 310.55 139.287 L 372.86 124.927 C 378.02 123.727 382.86 125.737 383.74 129.387 L 383.74 129.387 C 384.58 133.047 381.08 136.977 375.91 138.177 L 313.6 152.537 C 308.43 153.727 303.6 151.727 302.72 148.067 L 302.72 148.067 C 301.87 144.407 305.38 140.477 310.55 139.287 Z " fill-rule="evenodd" fill="rgb(215,213,213)"/><mask id="_mask_jal8iDMOGAhk4PZK8TCFen2J2PJkmuuP" x="-200%" y="-200%" width="400%" height="400%"><rect x="-200%" y="-200%" width="400%" height="400%" style="fill:white;"/><path d=" M 246.03 500.777 C 248.692 497.953 251.08 494.883 253.16 491.607" fill="black" stroke="none"/></mask><path d=" M 246.03 500.777 C 248.692 497.953 251.08 494.883 253.16 491.607" fill="none" mask="url(#_mask_jal8iDMOGAhk4PZK8TCFen2J2PJkmuuP)" vector-effect="non-scaling-stroke" stroke-width="4" stroke="rgb(203,93,102)" stroke-linejoin="round" stroke-linecap="round" stroke-miterlimit="4"/><path d=" M 246.03 500.777 C 248.692 497.953 251.08 494.883 253.16 491.607" fill="none"/><mask id="_mask_KWqEYbdgI4EDppLBkyWRjWEdNJjMs2eG" x="-200%" y="-200%" width="400%" height="400%"><rect x="-200%" y="-200%" width="400%" height="400%" style="fill:white;"/><path d=" M 257.07 506.767 C 261.27 502.707 267.42 494.137 270.56 488.997" fill="black" stroke="none"/></mask><path d=" M 257.07 506.767 C 261.27 502.707 267.42 494.137 270.56 488.997" fill="none" mask="url(#_mask_KWqEYbdgI4EDppLBkyWRjWEdNJjMs2eG)" vector-effect="non-scaling-stroke" stroke-width="4" stroke="rgb(203,93,102)" stroke-linejoin="round" stroke-linecap="round" stroke-miterlimit="4"/><path d=" M 257.07 506.767 C 261.27 502.707 267.42 494.137 270.56 488.997" fill="none"/><mask id="_mask_CoObpKNPNWRkZdxklyrRyIUTdPgTzXim" x="-200%" y="-200%" width="400%" height="400%"><rect x="-200%" y="-200%" width="400%" height="400%" style="fill:white;"/><path d=" M 433.77 437.957 C 440.07 432.727 449.9 443.437 454.37 447.757" fill="black" stroke="none"/></mask><path d=" M 433.77 437.957 C 440.07 432.727 449.9 443.437 454.37 447.757" fill="none" mask="url(#_mask_CoObpKNPNWRkZdxklyrRyIUTdPgTzXim)" vector-effect="non-scaling-stroke" stroke-width="4" stroke="rgb(203,93,102)" stroke-linejoin="round" stroke-linecap="round" stroke-miterlimit="4"/><path d=" M 433.77 437.957 C 440.07 432.727 449.9 443.437 454.37 447.757" fill="none"/><mask id="_mask_SX3sHSVl13bWiPzTTWedaAy4q933AjMy" x="-200%" y="-200%" width="400%" height="400%"><rect x="-200%" y="-200%" width="400%" height="400%" style="fill:white;"/><path d=" M 271.49 184.157 C 270.769 184.475 269.989 184.639 269.2 184.637 C 266.791 184.64 264.641 183.13 263.827 180.863 C 263.013 178.596 263.711 176.062 265.572 174.533 C 267.433 173.004 270.054 172.809 272.12 174.047" fill="black" stroke="none"/></mask><path d=" M 271.49 184.157 C 270.769 184.475 269.989 184.639 269.2 184.637 C 266.791 184.64 264.641 183.13 263.827 180.863 C 263.013 178.596 263.711 176.062 265.572 174.533 C 267.433 173.004 270.054 172.809 272.12 174.047" fill="none" mask="url(#_mask_SX3sHSVl13bWiPzTTWedaAy4q933AjMy)" vector-effect="non-scaling-stroke" stroke-width="4" stroke="rgb(203,93,102)" stroke-linejoin="round" stroke-linecap="round" stroke-miterlimit="4"/><path d=" M 271.49 184.157 C 270.769 184.475 269.989 184.639 269.2 184.637 C 266.791 184.64 264.641 183.13 263.827 180.863 C 263.013 178.596 263.711 176.062 265.572 174.533 C 267.433 173.004 270.054 172.809 272.12 174.047" fill="none"/><mask id="_mask_ByAEBIAiq9sWhdrODb96KzCKZxqNc8cu" x="-200%" y="-200%" width="400%" height="400%"><rect x="-200%" y="-200%" width="400%" height="400%" style="fill:white;"/><path d=" M 311.34 112.777 C 298.837 109.54 285.544 111.924 274.946 119.305 C 264.347 126.686 257.5 138.327 256.2 151.177" fill="black" stroke="none"/></mask><path d=" M 311.34 112.777 C 298.837 109.54 285.544 111.924 274.946 119.305 C 264.347 126.686 257.5 138.327 256.2 151.177" fill="none" mask="url(#_mask_ByAEBIAiq9sWhdrODb96KzCKZxqNc8cu)" vector-effect="non-scaling-stroke" stroke-width="4" stroke="rgb(255,50,116)" stroke-linejoin="round" stroke-linecap="round" stroke-miterlimit="4"/><path d=" M 311.34 112.777 C 298.837 109.54 285.544 111.924 274.946 119.305 C 264.347 126.686 257.5 138.327 256.2 151.177" fill="none"/><mask id="_mask_E5ZPnRGMbPjxpyMkv88NViEjaS4sj0xQ" x="-200%" y="-200%" width="400%" height="400%"><rect x="-200%" y="-200%" width="400%" height="400%" style="fill:white;"/><path d=" M 344.36 159.137 C 346.922 162.538 348.788 166.412 349.85 170.537 C 350.56 173.257 349.94 175.167 345.29 179.067 C 344.37 191.497 335.42 209.587 312.98 211.787" fill="black" stroke="none"/></mask><path d=" M 344.36 159.137 C 346.922 162.538 348.788 166.412 349.85 170.537 C 350.56 173.257 349.94 175.167 345.29 179.067 C 344.37 191.497 335.42 209.587 312.98 211.787" fill="none" mask="url(#_mask_E5ZPnRGMbPjxpyMkv88NViEjaS4sj0xQ)" vector-effect="non-scaling-stroke" stroke-width="4" stroke="rgb(201,201,201)" stroke-linejoin="round" stroke-linecap="round" stroke-miterlimit="4"/><path d=" M 344.36 159.137 C 346.922 162.538 348.788 166.412 349.85 170.537 C 350.56 173.257 349.94 175.167 345.29 179.067 C 344.37 191.497 335.42 209.587 312.98 211.787" fill="none"/></g></g></svg>